<svg width="800" height="800" viewBox="0 0 800 800" fill="none" xmlns="http://www.w3.org/2000/svg">
<path d="M57.8125 143.516H226.562V717.188H57.8125V143.516Z" fill="#55B7A8"/>
<path d="M232.812 723.438H51.5625V137.266H232.812V723.438ZM64.0625 710.938H220.312V149.766H64.0625V710.938Z" fill="#0A0408"/>
<path d="M98.125 192.656H189.375V371.719H98.125V192.656Z" fill="white"/>
<path d="M195.625 377.969H91.875V186.406H195.625V377.969ZM104.375 365.469H183.125V198.906H104.375V365.469Z" fill="#0A0408"/>
<path d="M96.5625 612.422C96.5625 618.085 97.678 623.693 99.8452 628.925C102.012 634.157 105.189 638.911 109.194 642.916C113.198 646.92 117.952 650.097 123.184 652.264C128.416 654.431 134.024 655.547 139.688 655.547C145.351 655.547 150.959 654.431 156.191 652.264C161.423 650.097 166.177 646.92 170.181 642.916C174.186 638.911 177.363 634.157 179.53 628.925C181.697 623.693 182.812 618.085 182.812 612.422C182.812 606.759 181.697 601.151 179.53 595.919C177.363 590.686 174.186 585.932 170.181 581.928C166.177 577.923 161.423 574.747 156.191 572.58C150.959 570.412 145.351 569.297 139.688 569.297C134.024 569.297 128.416 570.412 123.184 572.58C117.952 574.747 113.198 577.923 109.194 581.928C105.189 585.932 102.012 590.686 99.8452 595.919C97.678 601.151 96.5625 606.759 96.5625 612.422Z" fill="white"/>
<path d="M139.688 661.797C112.5 661.797 90.3125 639.688 90.3125 612.422C90.3125 585.156 112.422 563.047 139.688 563.047C166.875 563.047 189.062 585.156 189.062 612.422C189.062 639.688 166.875 661.797 139.688 661.797ZM139.688 575.547C119.375 575.547 102.813 592.109 102.813 612.422C102.813 632.734 119.375 649.297 139.688 649.297C160 649.297 176.562 632.734 176.562 612.422C176.562 592.109 160 575.547 139.688 575.547Z" fill="#0A0408"/>
<path d="M405.781 175.156L568.75 131.484L717.266 685.625L554.297 729.297" fill="white"/>
<path d="M404.177 169.06L410.213 167.443L413.448 179.516L407.411 181.134L404.177 169.06ZM425.078 176.406L421.875 164.297L433.516 161.172L436.719 173.281L425.078 176.406ZM448.281 170.234L445.078 158.125L456.719 155L459.922 167.109L448.281 170.234ZM471.485 163.984L468.281 151.875L479.922 148.75L483.125 160.859L471.485 163.984ZM494.688 157.734L491.485 145.625L503.125 142.5L506.328 154.609L494.688 157.734ZM517.969 151.562L514.766 139.453L526.406 136.328L529.61 148.438L517.969 151.562ZM541.172 145.312L537.969 133.203L549.61 130.078L552.813 142.188L541.172 145.312ZM564.375 139.141L561.094 127.031L573.203 123.828L576.406 135.859L564.375 139.141ZM706.406 669.141L703.203 657.109L715.313 653.906L718.516 665.938L706.406 669.141ZM699.922 645.078L696.719 633.047L708.828 629.844L712.031 641.875L699.922 645.078ZM693.438 620.938L690.235 608.906L702.344 605.703L705.547 617.734L693.438 620.938ZM687.031 596.875L683.828 584.844L695.938 581.641L699.141 593.672L687.031 596.875ZM680.547 572.812L677.344 560.781L689.453 557.578L692.656 569.609L680.547 572.812ZM674.141 548.672L670.938 536.641L683.047 533.438L686.25 545.469L674.141 548.672ZM667.656 524.609L664.453 512.578L676.563 509.375L679.766 521.406L667.656 524.609ZM661.172 500.469L657.969 488.438L670.078 485.234L673.281 497.266L661.172 500.469ZM654.766 476.406L651.563 464.375L663.672 461.172L666.875 473.203L654.766 476.406ZM648.281 452.344L645.078 440.312L657.188 437.109L660.391 449.141L648.281 452.344ZM641.797 428.203L638.594 416.172L650.703 412.969L653.906 425L641.797 428.203ZM635.391 404.141L632.188 392.109L644.297 388.906L647.5 400.938L635.391 404.141ZM628.906 380L625.703 367.969L637.813 364.766L641.016 376.797L628.906 380ZM622.5 355.938L619.297 343.906L631.406 340.703L634.61 352.734L622.5 355.938ZM616.016 331.875L612.813 319.844L624.922 316.641L628.125 328.672L616.016 331.875ZM609.531 307.734L606.328 295.703L618.438 292.5L621.641 304.531L609.531 307.734ZM603.125 283.672L599.922 271.641L612.031 268.438L615.235 280.469L603.125 283.672ZM596.641 259.609L593.438 247.578L605.547 244.375L608.75 256.406L596.641 259.609ZM590.156 235.469L586.953 223.438L599.063 220.234L602.266 232.266L590.156 235.469ZM583.75 211.406L580.547 199.375L592.656 196.172L595.86 208.203L583.75 211.406ZM577.266 187.266L574.063 175.234L586.172 172.031L589.375 184.063L577.266 187.266ZM570.781 163.203L567.578 151.172L579.688 147.969L582.891 160L570.781 163.203ZM709.612 681.203L721.685 677.967L724.922 690.041L712.848 693.277L709.612 681.203ZM573.594 730.547L570.391 718.438L582.031 715.312L585.235 727.422L573.594 730.547ZM596.797 724.375L593.594 712.266L605.235 709.141L608.438 721.25L596.797 724.375ZM620 718.125L616.797 706.016L628.438 702.891L631.641 715L620 718.125ZM643.203 711.953L640 699.844L651.641 696.719L654.844 708.828L643.203 711.953ZM666.406 705.703L663.203 693.594L674.844 690.469L678.047 702.578L666.406 705.703ZM689.61 699.453L686.406 687.344L698.047 684.219L701.25 696.328L689.61 699.453ZM552.69 723.172L558.727 721.555L561.962 733.628L555.925 735.245L552.69 723.172Z" fill="#0A0408"/>
<path d="M455.952 212.594L544.09 188.978L590.432 361.935L502.294 385.55L455.952 212.594Z" fill="white"/>
<path d="M497.891 393.203L448.281 208.203L548.516 181.25L598.125 366.25L497.891 393.203ZM463.594 216.953L506.719 377.812L582.812 357.422L539.687 196.563L463.594 216.953Z" fill="#0A0408"/>
<path d="M564.582 618.045C567.542 629.092 574.769 638.512 584.674 644.231C594.579 649.95 606.35 651.5 617.398 648.54C628.446 645.58 637.865 638.352 643.584 628.447C649.303 618.542 650.853 606.771 647.893 595.723C646.427 590.253 643.899 585.125 640.451 580.632C637.004 576.139 632.705 572.369 627.8 569.537C622.896 566.705 617.482 564.867 611.867 564.128C606.252 563.389 600.547 563.762 595.076 565.228C589.606 566.694 584.478 569.222 579.985 572.67C575.492 576.117 571.722 580.416 568.89 585.321C566.059 590.225 564.221 595.639 563.481 601.254C562.742 606.869 563.116 612.574 564.582 618.045Z" fill="white"/>
<path d="M606.25 656.25C584.453 656.25 564.453 641.718 558.593 619.687C551.562 593.359 567.187 566.25 593.515 559.218C619.843 552.187 646.953 567.812 653.984 594.14C661.015 620.39 645.39 647.578 619.062 654.609C614.765 655.703 610.468 656.25 606.25 656.25ZM606.25 570C603.125 570 599.922 570.39 596.718 571.25C577.109 576.484 565.39 596.797 570.625 616.406C575.859 636.015 596.172 647.734 615.781 642.5C635.39 637.265 647.109 616.953 641.875 597.343C637.422 580.937 622.5 570 606.25 570Z" fill="#0A0408"/>
<path d="M693.893 672.141L730.643 662.295L740.489 699.045L703.739 708.891L693.893 672.141Z" fill="#DC444A"/>
<path d="M699.375 716.562L686.25 667.734L735.078 654.609L748.203 703.438L699.375 716.562ZM701.562 676.562L708.203 701.25L732.891 694.609L726.25 669.922L701.562 676.562Z" fill="#0A0408"/>
<path d="M545.471 118L582.221 108.153L592.067 144.903L555.317 154.749L545.471 118Z" fill="#DC444A"/>
<path d="M550.859 162.422L537.734 113.594L586.562 100.469L599.687 149.297L550.859 162.422ZM553.125 122.422L559.766 147.109L584.453 140.469L577.812 115.781L553.125 122.422Z" fill="#0A0408"/>
<path d="M227.656 143.516H396.406V717.188H227.656V143.516Z" fill="#EBB866"/>
<path d="M402.656 723.438H221.406V137.266H402.656V723.438ZM233.906 710.938H390.156V149.766H233.906V710.938Z" fill="#0A0408"/>
<path d="M267.969 192.656H359.219V371.719H267.969V192.656Z" fill="white"/>
<path d="M365.469 377.969H261.719V186.406H365.469V377.969ZM274.219 365.469H352.969V198.906H274.219V365.469Z" fill="#0A0408"/>
<path d="M266.406 612.422C266.406 623.859 270.95 634.828 279.037 642.916C287.125 651.003 298.094 655.547 309.531 655.547C320.969 655.547 331.938 651.003 340.025 642.916C348.113 634.828 352.656 623.859 352.656 612.422C352.656 600.984 348.113 590.015 340.025 581.928C331.938 573.84 320.969 569.297 309.531 569.297C298.094 569.297 287.125 573.84 279.037 581.928C270.95 590.015 266.406 600.984 266.406 612.422Z" fill="white"/>
<path d="M309.531 661.797C282.344 661.797 260.156 639.688 260.156 612.422C260.156 585.156 282.266 563.047 309.531 563.047C336.719 563.047 358.906 585.156 358.906 612.422C358.906 639.688 336.719 661.797 309.531 661.797ZM309.531 575.547C289.219 575.547 272.656 592.109 272.656 612.422C272.656 632.734 289.219 649.297 309.531 649.297C329.844 649.297 346.406 632.734 346.406 612.422C346.406 592.109 329.844 575.547 309.531 575.547Z" fill="#0A0408"/>
<path d="M556.641 735.547L405 169.688L556.641 735.547Z" fill="white"/>
<path d="M399.006 171.272L411.079 168.037L562.7 733.918L550.626 737.154L399.006 171.272Z" fill="#0A0408"/>
</svg>
