<svg width="800" height="800" viewBox="0 0 800 800" fill="none" xmlns="http://www.w3.org/2000/svg">
<path d="M525.781 286.562C522.031 289.297 517.578 290 512.734 290C507.891 290 504.219 291.016 500.547 288.281C490.625 293.438 480.391 304.219 480.391 316.719H539.922C539.922 304.219 535.703 291.719 525.781 286.562Z" fill="#F9C0C0"/>
<path d="M496.562 267.266C496.562 270.788 497.962 274.166 500.452 276.657C502.943 279.148 506.321 280.547 509.844 280.547C513.366 280.547 516.744 279.148 519.235 276.657C521.726 274.166 523.125 270.788 523.125 267.266C523.125 263.743 521.726 260.365 519.235 257.874C516.744 255.384 513.366 253.984 509.844 253.984C506.321 253.984 502.943 255.384 500.452 257.874C497.962 260.365 496.562 263.743 496.562 267.266Z" fill="#F9C0C0"/>
<path d="M580.312 697.813H219.688C212.812 697.813 207.188 692.188 207.188 685.313V186.641C207.188 179.766 212.812 174.141 219.688 174.141H580.391C587.266 174.141 592.891 179.766 592.891 186.641V685.313C592.812 692.188 587.266 697.813 580.312 697.813ZM219.688 180.391C216.25 180.391 213.438 183.203 213.438 186.641V685.313C213.438 688.75 216.25 691.563 219.688 691.563H580.391C583.828 691.563 586.641 688.75 586.641 685.313V186.641C586.641 183.203 583.828 180.391 580.391 180.391H219.688Z" fill="#CE0202"/>
<path d="M589.688 748.828H210.313C178.516 748.828 152.734 722.969 152.734 691.25V180.703C152.734 148.906 178.594 123.125 210.313 123.125H318.047C319.922 103.75 328.594 85.7812 342.656 72.1094C358.125 57.0313 378.594 48.75 400.234 48.75C421.875 48.75 442.266 57.0313 457.812 72.1094C471.875 85.7812 480.547 103.75 482.422 123.125H589.766C621.563 123.125 647.344 148.984 647.344 180.703V691.25C647.344 722.969 621.484 748.828 589.688 748.828ZM210.313 134.844C185 134.844 164.453 155.391 164.453 180.703V691.25C164.453 716.562 185 737.109 210.313 737.109H589.766C615.078 737.109 635.625 716.562 635.625 691.25V180.703C635.625 155.391 615.078 134.844 589.766 134.844H471.25L471.094 129.141C470.547 110.703 462.891 93.3594 449.609 80.4687C436.328 67.5781 418.75 60.3906 400.234 60.3906C381.719 60.3906 364.141 67.5781 350.781 80.4687C337.5 93.3594 329.922 110.625 329.297 129.141L329.141 134.844H210.313Z" fill="#999999"/>
<path d="M401.953 119.766C392.109 119.766 384.141 111.797 384.141 101.953C384.141 92.1094 392.109 84.1406 401.953 84.1406C411.797 84.1406 419.766 92.1094 419.766 101.953C419.766 111.797 411.719 119.766 401.953 119.766ZM401.953 90.4688C395.625 90.4688 390.391 95.625 390.391 102.031C390.391 108.438 395.547 113.594 401.953 113.594C408.359 113.594 413.516 108.438 413.516 102.031C413.516 95.625 408.281 90.4688 401.953 90.4688Z" fill="#CE0202"/>
<path d="M497.813 200H301.797C294.922 200 289.297 194.375 289.297 187.5V141.562C289.297 134.688 294.922 129.062 301.797 129.062H497.813C504.688 129.062 510.313 134.688 510.313 141.562V187.5C510.313 194.375 504.688 200 497.813 200ZM301.797 135.312C298.359 135.312 295.547 138.125 295.547 141.562V187.5C295.547 190.938 298.359 193.75 301.797 193.75H497.813C501.25 193.75 504.063 190.938 504.063 187.5V141.562C504.063 138.125 501.25 135.312 497.813 135.312H301.797ZM507.031 283.203C496.25 283.203 487.422 274.375 487.422 263.594C487.422 252.812 496.25 243.984 507.031 243.984C517.813 243.984 526.641 252.812 526.641 263.594C526.641 274.375 517.891 283.203 507.031 283.203ZM507.031 250.234C499.688 250.234 493.672 256.25 493.672 263.594C493.672 270.938 499.688 276.953 507.031 276.953C514.375 276.953 520.391 270.938 520.391 263.594C520.391 256.25 514.453 250.234 507.031 250.234Z" fill="#999999"/>
<path d="M544.688 319.844H469.453V316.719C469.453 302.266 477.578 289.297 490.547 282.891L492.187 282.109L493.672 283.125C497.656 285.859 502.266 287.266 507.031 287.266C511.797 287.266 516.484 285.859 520.391 283.125L521.875 282.109L523.516 282.891C536.562 289.297 544.609 302.188 544.609 316.719V319.844H544.688ZM475.859 313.594H538.281C537.266 303.359 531.406 294.375 522.344 289.297C517.734 292.031 512.5 293.516 507.031 293.516C501.641 293.516 496.328 292.031 491.719 289.297C482.734 294.375 476.875 303.359 475.859 313.594ZM276.875 250.625H357.969V256.875H276.875V250.625ZM276.875 309.297H416.562V315.547H276.875V309.297ZM276.875 367.969H324.297V374.219H276.875V367.969ZM276.875 426.563H541.641V432.813H276.875V426.563ZM276.875 485.234H490.781V491.484H276.875V485.234ZM276.875 543.906H346.719V550.156H276.875V543.906ZM483.828 634.453H541.641V640.703H483.828V634.453Z" fill="#999999"/>
</svg>
