<svg width="800" height="800" viewBox="0 0 800 800" fill="none" xmlns="http://www.w3.org/2000/svg">
<path d="M335.775 276.851H464.224V422.759H335.775V276.851Z" fill="#FFE2D1"/>
<path d="M464.848 435.23H335.775C328.917 435.23 323.305 429.618 323.305 422.759V276.851C323.305 269.992 328.917 264.38 335.775 264.38H464.224C471.083 264.38 476.695 269.992 476.695 276.851V422.759C477.319 429.618 471.707 435.23 464.848 435.23ZM348.246 410.288H451.754V289.322H348.246V410.288Z" fill="#131313"/>
<path d="M396.259 168.355L288.387 109.743C287.14 115.355 287.14 121.59 287.14 127.202V242.556C287.14 305.534 338.27 357.287 401.871 357.287C464.848 357.287 516.602 306.157 516.602 242.556V194.544L396.259 122.213V168.355Z" fill="#FFE2D1"/>
<path d="M401.247 369.135C331.41 369.135 274.045 312.393 274.045 241.933V127.202C274.045 120.343 274.668 114.108 275.916 107.872C276.539 104.131 279.033 100.39 282.774 98.5192C286.516 96.6486 290.88 96.6486 293.998 98.5192L383.164 147.155V122.214C383.164 117.849 385.658 113.484 389.4 111.613C393.141 109.119 398.129 109.743 401.87 111.613L522.213 183.944C525.955 186.438 528.449 190.179 528.449 194.544V242.557C528.449 312.393 471.707 369.135 401.247 369.135ZM299.61 129.696V242.557C299.61 298.675 345.128 344.817 401.87 344.817C458.612 344.817 504.131 299.299 504.131 242.557V201.403L408.729 144.037V168.355C408.729 172.72 406.235 177.085 402.494 178.956C398.753 181.45 393.764 181.45 390.023 178.956L299.61 129.696Z" fill="#131313"/>
<path d="M401.247 12.4707C345.129 12.4707 297.116 53.6243 288.387 109.743L396.259 168.355V122.213L516.602 193.92V127.202C515.978 63.6009 464.848 12.4707 401.247 12.4707Z" fill="#B08A77"/>
<path d="M515.978 207.015C513.484 207.015 511.614 206.391 509.743 205.144L408.73 144.661V168.355C408.73 172.72 406.236 177.085 402.494 178.956C398.753 181.45 393.765 181.45 390.024 178.956L282.151 120.343C277.787 117.849 275.293 112.86 275.916 107.249C285.893 45.5183 338.27 0 401.247 0C471.084 0 528.449 56.742 528.449 127.202V194.544C528.449 198.909 525.955 203.274 522.214 205.144C520.343 206.391 517.849 207.015 515.978 207.015ZM396.259 109.743C398.753 109.743 400.624 110.366 402.494 111.613L503.508 172.097V126.578C503.508 99.1426 492.908 73.5776 473.578 54.2479C454.248 35.5417 428.683 24.9415 401.247 24.9415C353.858 24.9415 313.328 57.3655 302.105 102.884L383.165 147.155V122.214C383.165 117.849 385.659 113.484 389.4 111.613C391.894 110.366 393.765 109.743 396.259 109.743Z" fill="#131313"/>
<path d="M547.779 422.136H502.26L541.543 538.114L499.143 571.161V616.68L401.247 714.575L303.975 614.809V569.291L261.574 536.243L300.857 422.136H251.598C182.385 422.136 126.267 478.878 126.267 548.091V787.529H673.733V548.091C673.733 478.878 617.615 422.759 547.779 422.136Z" fill="#6591C2"/>
<path d="M673.734 800H126.267C119.408 800 113.796 794.388 113.796 787.529V548.091C113.796 472.019 175.526 410.289 251.598 410.289H300.857C304.599 410.289 308.963 412.159 310.834 415.277C312.705 418.395 313.952 422.759 312.705 426.501L276.539 532.502L311.458 559.938C314.575 562.432 316.446 566.173 316.446 569.914V609.821L401.247 696.493L486.672 611.068V571.162C486.672 567.42 488.543 563.679 491.66 561.185L526.578 533.749L490.413 426.501C489.166 422.759 489.79 418.395 492.284 415.277C494.778 412.159 498.519 410.289 502.26 410.289H547.779C584.568 410.289 619.486 424.63 645.051 450.819C671.239 477.007 685.581 511.302 685.581 548.091V787.529C686.204 794.388 680.592 800 673.734 800ZM138.737 775.059H661.263V548.091C661.263 518.161 649.416 489.478 628.215 468.278C607.015 447.077 578.332 435.23 548.402 435.23H519.72L553.391 534.373C555.261 539.361 553.391 544.973 549.026 548.091L511.614 576.773V616.056C511.614 619.174 510.366 622.292 507.872 624.786L409.977 722.681C407.483 725.176 404.365 726.423 401.247 726.423C398.129 726.423 395.012 725.176 392.518 722.681L295.246 623.539C292.751 621.045 291.504 617.927 291.504 614.809V575.526L254.092 546.844C249.727 543.726 248.48 538.114 249.727 533.126L283.398 435.23H251.598C189.244 435.23 138.737 485.737 138.737 548.091V775.059Z" fill="#131313"/>
<path d="M303.975 569.914V614.809L401.247 713.952L499.143 616.056V571.161L541.544 538.114L502.261 422.136H300.858L262.198 536.867L303.975 569.914Z" fill="#9BC7F6"/>
<path d="M401.247 726.423C398.129 726.423 394.388 725.176 392.517 722.681L295.245 623.539C292.751 621.045 291.504 617.927 291.504 614.809V575.526L254.092 546.843C249.727 543.726 248.48 538.114 249.727 533.126L288.386 418.395C290.257 413.406 294.622 409.665 300.234 409.665H501.636C507.248 409.665 511.613 412.783 513.484 418.395L552.767 534.373C554.637 539.361 552.767 544.973 548.402 548.091L510.99 576.773V616.056C510.99 619.174 509.742 622.292 507.248 624.786L409.353 722.681C408.106 725.176 404.988 726.423 401.247 726.423ZM316.446 609.821L401.247 695.869L486.672 611.068V571.161C486.672 567.42 488.542 563.679 491.66 561.185L526.578 533.749L492.907 434.607H309.587L276.539 532.502L311.457 559.938C314.575 562.432 316.446 566.173 316.446 569.914V609.821Z" fill="#131313"/>
<path d="M361.964 422.136H300.857L368.823 619.797L396.882 483.866L361.964 422.136Z" fill="white"/>
<path d="M368.823 632.268C363.834 632.268 358.846 629.151 356.975 624.162L288.386 426.501C287.139 422.759 287.763 418.395 290.257 415.277C292.751 412.159 296.492 410.289 300.233 410.289H361.34C365.705 410.289 370.07 412.783 371.94 416.524L406.859 478.254C408.106 480.748 408.729 483.866 408.106 486.984L380.046 622.915C378.799 628.527 374.435 632.268 368.823 632.892C369.446 632.268 369.446 632.268 368.823 632.268ZM318.316 435.23L366.329 573.656L383.788 486.36L354.481 435.23H318.316Z" fill="#131313"/>
<path d="M431.8 625.409L502.26 422.136H438.036L402.494 483.866L431.8 625.409Z" fill="white"/>
<path d="M431.801 637.88H431.177C425.565 637.257 421.2 633.515 419.953 627.904L390.647 486.36C390.023 483.243 390.647 480.125 391.894 477.631L426.812 415.9C429.306 412.159 433.048 409.665 437.412 409.665H501.637C505.378 409.665 509.743 411.536 511.613 414.653C514.108 417.771 514.731 422.136 513.484 425.877L443.648 629.774C441.777 634.762 437.412 637.88 431.801 637.88ZM416.212 486.36L435.542 579.268L485.425 435.23H446.142L416.212 486.36Z" fill="#131313"/>
<path d="M438.036 422.136H361.964L396.882 483.866L368.823 619.797L390.023 680.904L401.247 713.952L413.094 680.904L431.8 625.409L402.494 483.866L438.036 422.136Z" fill="#2B3038"/>
<path d="M401.247 726.423C395.636 726.423 391.271 723.305 389.4 718.317L356.976 624.162C356.353 622.292 356.353 619.797 356.353 617.303L383.788 486.36L350.741 428.371C348.247 424.63 348.247 419.642 350.741 415.9C353.235 412.159 356.976 409.665 361.341 409.665H438.036C442.401 409.665 446.766 412.159 448.636 415.9C451.13 419.642 451.13 424.63 448.636 428.371L416.212 486.36L444.272 623.539C444.895 626.033 444.272 627.904 443.648 630.398L413.095 718.317C411.224 723.305 406.859 726.423 401.247 726.423ZM381.918 619.174L401.247 675.916L418.706 624.786L399.377 531.879L381.918 619.174ZM383.165 435.23L400 463.913L416.836 435.23H383.165Z" fill="#131313"/>
<path d="M401.247 800C394.388 800 388.776 794.388 388.776 787.529V713.952C388.776 707.093 394.388 701.481 401.247 701.481C408.106 701.481 413.718 707.093 413.718 713.952V787.529C413.718 794.388 408.106 800 401.247 800Z" fill="#131313"/>
<path d="M600.156 800C593.297 800 587.686 794.388 587.686 787.529V581.138C587.686 574.279 593.297 568.667 600.156 568.667C607.015 568.667 612.627 574.279 612.627 581.138V787.529C612.627 794.388 607.015 800 600.156 800Z" fill="#131313"/>
<path d="M199.844 800C192.985 800 187.373 794.388 187.373 787.529V581.138C187.373 574.279 192.985 568.667 199.844 568.667C206.703 568.667 212.315 574.279 212.315 581.138V787.529C212.315 794.388 206.703 800 199.844 800Z" fill="#131313"/>
</svg>
