<svg width="800" height="800" viewBox="0 0 800 800" fill="none" xmlns="http://www.w3.org/2000/svg">
<g clip-path="url(#clip0_148_233)">
<path d="M42.7547 18.9248H527.309C544.039 18.9248 557.671 32.5568 557.671 49.2869V750.713C557.671 767.443 544.039 781.075 527.309 781.075H42.7547C26.0245 781.075 12.3926 767.443 12.3926 750.713V49.2869C12.3926 32.5568 26.0245 18.9248 42.7547 18.9248Z" fill="white"/>
<path d="M527.309 793.468H42.7548C19.2087 793.468 0 774.259 0 750.713V49.287C0 25.7409 19.2087 6.53223 42.7548 6.53223H527.309C550.855 6.53223 570.064 25.7409 570.064 49.287V750.713C570.064 774.259 550.855 793.468 527.309 793.468ZM42.7548 31.3176C32.8406 31.3176 24.7854 39.3728 24.7854 49.287V750.713C24.7854 760.627 32.8406 768.683 42.7548 768.683H527.309C537.223 768.683 545.278 760.627 545.278 750.713V49.287C545.278 39.3728 537.223 31.3176 527.309 31.3176H42.7548Z" fill="black"/>
<path d="M211.915 672.639C208.817 672.639 205.719 671.4 203.24 668.921L131.982 598.283C127.025 593.326 127.025 585.89 131.982 580.933C136.94 575.976 144.375 575.976 149.332 580.933L220.59 652.191C225.547 657.148 225.547 664.584 220.59 669.541C218.112 671.4 215.013 672.639 211.915 672.639Z" fill="black"/>
<path d="M139.418 674.498C136.32 674.498 133.222 673.259 130.743 670.78C125.786 665.823 125.786 658.387 130.743 653.43L205.099 579.074C210.056 574.117 217.492 574.117 222.449 579.074C227.406 584.031 227.406 591.467 222.449 596.424L148.093 670.78C145.614 673.259 142.516 674.498 139.418 674.498Z" fill="black"/>
<path d="M322.83 561.105L739.224 144.711C746.04 139.134 756.574 139.753 762.151 146.569L782.598 167.017C789.414 172.594 790.034 183.128 784.457 189.944L368.063 606.338L303.621 624.927L322.83 561.105Z" fill="#7BAEEF"/>
<path d="M303.621 637.32C300.523 637.32 297.425 636.081 294.946 633.602C291.848 630.504 290.609 625.547 291.848 621.21L311.057 557.387C311.676 555.528 312.916 553.669 314.155 552.43L730.549 136.036L731.169 135.416C742.942 125.502 760.911 127.361 770.825 138.514L790.654 158.343C801.807 168.257 803.666 186.226 793.752 197.999C793.752 198.619 793.132 198.619 793.132 198.619L376.738 615.013C375.499 616.252 373.64 617.492 371.161 618.111L306.719 636.7C306.1 637.32 304.86 637.32 303.621 637.32ZM333.983 567.301L322.21 606.958L361.867 595.185L775.782 181.269C777.022 179.41 776.402 177.551 775.163 175.692L774.543 175.073L754.095 154.625L753.476 154.005C752.236 152.766 749.758 152.146 747.899 153.386L333.983 567.301Z" fill="black"/>
<path d="M644.42 413.012C641.322 413.012 638.223 411.773 635.745 409.294C630.788 404.337 630.788 396.902 635.745 391.945L747.279 280.411L675.402 208.533C670.444 203.576 670.444 196.14 675.402 191.183C680.359 186.226 687.794 186.226 692.751 191.183L773.923 272.355C776.402 274.834 777.641 277.932 777.641 281.03C777.641 284.128 776.402 287.226 773.923 289.705L653.714 409.914C651.236 412.393 647.518 413.012 644.42 413.012ZM452.333 153.385H122.688C115.872 153.385 110.295 147.809 110.295 140.993C110.295 134.177 115.872 128.6 122.688 128.6H452.333C459.149 128.6 464.726 134.177 464.726 140.993C464.726 147.809 459.149 153.385 452.333 153.385ZM452.333 224.643H122.688C115.872 224.643 110.295 219.067 110.295 212.251C110.295 205.435 115.872 199.858 122.688 199.858H452.333C459.149 199.858 464.726 205.435 464.726 212.251C464.726 219.067 459.149 224.643 452.333 224.643ZM452.333 299H122.688C115.872 299 110.295 293.423 110.295 286.607C110.295 279.791 115.872 274.214 122.688 274.214H452.333C459.149 274.214 464.726 279.791 464.726 286.607C464.726 293.423 459.149 299 452.333 299Z" fill="black"/>
<path d="M452.333 370.258H122.688C115.872 370.258 110.295 364.681 110.295 357.865C110.295 351.049 115.872 345.472 122.688 345.472H452.333C459.149 345.472 464.726 351.049 464.726 357.865C464.726 364.681 459.149 370.258 452.333 370.258Z" fill="black"/>
<path d="M273.878 450.191H122.688C115.872 450.191 110.295 444.614 110.295 437.798C110.295 430.982 115.872 425.405 122.688 425.405H273.259C280.075 425.405 285.651 430.982 285.651 437.798C285.651 444.614 280.694 450.191 273.878 450.191Z" fill="black"/>
</g>
<defs>
<clipPath id="clip0_148_233">
<rect width="800" height="800" fill="white"/>
</clipPath>
</defs>
</svg>
