<svg width="800" height="800" viewBox="0 0 800 800" fill="none" xmlns="http://www.w3.org/2000/svg">
<g clip-path="url(#clip0_130_167)">
<path d="M746.392 200.003L653.568 146.409L599.988 53.5988H492.816L399.992 0.00463867L307.168 53.5988H199.996L146.402 146.423L53.5942 200.003V307.175L0 399.999L53.5942 492.823V599.995L146.418 653.589L200.012 746.413H307.184L399.994 799.993L492.818 746.399H599.99L653.584 653.575L746.408 599.981V492.809L800.002 399.985L746.408 307.161V200.003H746.392ZM363.891 563.713C356.432 571.171 346.606 574.796 336.825 574.659C327.04 574.798 317.217 571.171 309.758 563.713L192.774 446.729C178.12 432.074 178.12 408.301 192.774 393.647L223.743 362.678C238.398 348.023 262.171 348.023 276.825 362.678L336.825 422.677L523.149 236.338C537.804 221.684 561.577 221.684 576.231 236.338L607.2 267.308C621.855 281.962 621.855 305.735 607.2 320.389L363.891 563.713Z" fill="#0DBF28"/>
</g>
<defs>
<clipPath id="clip0_130_167">
<rect width="800" height="800" fill="white"/>
</clipPath>
</defs>
</svg>
