<svg width="800" height="800" viewBox="0 0 800 800" fill="none" xmlns="http://www.w3.org/2000/svg">
<path d="M412.5 681.25C413.75 668.75 425 658.75 437.5 658.75C448.75 658.75 458.75 666.25 461.25 677.5L505 675C508.75 675 511.25 677.5 511.25 681.25C511.25 685 508.75 687.5 505 687.5L460 690C457.5 701.25 447.5 708.75 436.25 708.75C426.25 708.75 416.25 702.5 412.5 692.5L300 700C296.25 700 293.75 697.5 293.75 693.75C293.75 690 296.25 687.5 300 687.5L412.5 681.25ZM338.75 431.25C341.25 420 351.25 412.5 362.5 412.5C373.75 412.5 383.75 420 386.25 431.25H500C503.75 431.25 506.25 433.75 506.25 437.5C506.25 441.25 503.75 443.75 500 443.75H386.25C383.75 455 373.75 462.5 362.5 462.5C351.25 462.5 341.25 455 338.75 443.75H306.25C302.5 443.75 300 441.25 300 437.5C300 433.75 302.5 431.25 306.25 431.25H338.75ZM426.25 387.5C428.75 376.25 438.75 368.75 450 368.75C460 368.75 468.75 375 472.5 383.75L498.75 381.25C502.5 381.25 505 383.75 505 387.5C505 391.25 502.5 393.75 498.75 393.75L475 396.25C473.75 408.75 463.75 418.75 450 418.75C438.75 418.75 428.75 411.25 426.25 400L295 412.5C291.25 412.5 288.75 410 288.75 406.25C288.75 402.5 291.25 400 295 400L426.25 387.5ZM351.25 105C353.75 95 363.75 87.5 375 87.5C387.5 87.5 398.75 97.5 400 110L500 118.75C503.75 118.75 506.25 122.5 506.25 125C506.25 127.5 502.5 131.25 500 131.25L398.75 122.5C395 131.25 386.25 137.5 375 137.5C362.5 137.5 352.5 128.75 350 117.5L293.75 112.5C290 112.5 287.5 108.75 287.5 106.25C287.5 102.5 291.25 100 293.75 100L351.25 105ZM340 343.75C336.25 345 333.75 343.75 332.5 340C331.25 336.25 332.5 333.75 336.25 332.5L461.25 288.75C465 287.5 467.5 288.75 468.75 292.5C470 296.25 468.75 298.75 465 300L340 343.75ZM341.25 175C337.5 173.75 336.25 170 337.5 166.25C338.75 162.5 342.5 161.25 346.25 162.5L465 212.5C468.75 213.75 470 217.5 468.75 221.25C467.5 225 463.75 226.25 460 225L341.25 175ZM311.25 143.75C307.5 142.5 306.25 140 306.25 136.25C307.5 132.5 310 131.25 313.75 131.25L488.75 168.75C492.5 170 493.75 172.5 493.75 176.25C492.5 180 490 181.25 486.25 181.25L311.25 143.75ZM287.5 81.25C283.75 81.25 281.25 78.75 281.25 75C281.25 71.25 283.75 68.75 287.5 68.75H512.5C516.25 68.75 518.75 71.25 518.75 75C518.75 78.75 516.25 81.25 512.5 81.25H287.5ZM471.25 593.75L352.5 643.75C348.75 645 346.25 643.75 343.75 640C342.5 636.25 343.75 633.75 347.5 631.25L466.25 581.25C470 580 472.5 581.25 475 585C476.25 588.75 473.75 592.5 471.25 593.75ZM317.5 662.5L486.25 625C490 623.75 492.5 626.25 493.75 630C495 633.75 492.5 636.25 488.75 637.5L320 675C316.25 676.25 313.75 673.75 312.5 670C312.5 666.25 313.75 663.75 317.5 662.5ZM287.5 731.25C283.75 731.25 281.25 728.75 281.25 725C281.25 721.25 283.75 718.75 287.5 718.75H512.5C516.25 718.75 518.75 721.25 518.75 725C518.75 728.75 516.25 731.25 512.5 731.25H287.5ZM307.5 381.25C303.75 382.5 301.25 380 300 376.25C298.75 372.5 301.25 370 305 368.75L486.25 331.25C490 330 492.5 332.5 493.75 336.25C495 340 492.5 342.5 488.75 343.75L307.5 381.25ZM323.75 475C320 475 317.5 471.25 318.75 467.5C320 463.75 322.5 461.25 326.25 462.5L488.75 481.25C492.5 481.25 495 485 493.75 488.75C493.75 492.5 490 495 486.25 493.75L323.75 475ZM372.5 506.25C368.75 505 367.5 501.25 368.75 498.75C370 496.25 373.75 493.75 376.25 495L463.75 526.25C467.5 527.5 468.75 531.25 467.5 533.75C466.25 536.25 462.5 538.75 460 537.5L372.5 506.25Z" fill="#2F4BFF"/>
<path d="M432.5 238.75C477.5 187.5 500 133.75 500 62.5C500 55 505 50 512.5 50C520 50 525 55 525 62.5C525 141.25 498.75 201.25 448.75 257.5C497.5 312.5 518.75 356.25 518.75 412.5C518.75 466.25 498.75 508.75 456.25 557.5C501.25 606.25 525 662.5 525 737.5C525 745 520 750 512.5 750C505 750 500 745 500 737.5C500 670 480 620 438.75 575C428.75 585 417.5 596.25 405 607.5C401.25 611.25 365 643.75 355 652.5C337.5 668.75 326.25 681.25 317.5 693.75C305 710 300 723.75 300 737.5C300 745 295 750 287.5 750C280 750 275 745 275 737.5C275 717.5 282.5 698.75 297.5 678.75C307.5 665 320 651.25 338.75 635C348.75 626.25 385 592.5 388.75 590C401.25 578.75 411.25 568.75 421.25 558.75C412.5 550 402.5 542.5 392.5 533.75C382.5 526.25 322.5 483.75 308.75 471.25C286.25 452.5 275 433.75 275 412.5C275 397.5 281.25 382.5 292.5 368.75C302.5 356.25 315 343.75 336.25 326.25C341.25 321.25 361.25 306.25 363.75 303.75C375 295 383.75 287.5 392.5 280C401.25 272.5 408.75 265 416.25 257.5L388.75 230C387.5 228.75 362.5 203.75 355 197.5C342.5 185 332.5 175 323.75 165C291.25 127.5 275 96.25 275 62.5C275 55 280 50 287.5 50C295 50 300 55 300 62.5C300 88.75 313.75 115 342.5 147.5C351.25 157.5 360 166.25 372.5 178.75C380 186.25 403.75 210 406.25 211.25C415 221.25 423.75 230 432.5 238.75ZM437.5 540C475 496.25 493.75 458.75 493.75 412.5C493.75 365 475 325 432.5 276.25C425 283.75 417.5 291.25 408.75 298.75C417.5 291.25 326.25 367.5 312.5 383.75C303.75 393.75 300 403.75 300 412.5C300 425 307.5 437.5 325 452.5C337.5 463.75 396.25 505 407.5 513.75C418.75 522.5 428.75 530 437.5 540Z" fill="#050D42"/>
</svg>
