<svg width="800" height="800" viewBox="0 0 800 800" fill="none" xmlns="http://www.w3.org/2000/svg">
<path d="M105.703 291.406H694.062V676.562H105.703V291.406Z" fill="white"/>
<path d="M687.891 285.156H700.391V297.656H687.891V285.156ZM675.625 297.656H663.359V285.156H675.625V297.656ZM651.094 297.656H638.828V285.156H651.094V297.656ZM626.641 297.656H614.375V285.156H626.641V297.656ZM602.109 297.656H589.844V285.156H602.109V297.656ZM577.578 297.656H565.312V285.156H577.578V297.656ZM553.125 297.656H540.859V285.156H553.125V297.656ZM528.594 297.656H516.328V285.156H528.594V297.656ZM504.063 297.656H491.797V285.156H504.063V297.656ZM479.609 297.656H467.344V285.156H479.609V297.656ZM455.078 297.656H442.812V285.156H455.078V297.656ZM430.547 297.656H418.281V285.156H430.547V297.656ZM406.016 297.656H393.75V285.156H406.016V297.656ZM381.562 297.656H369.297V285.156H381.562V297.656ZM357.031 297.656H344.766V285.156H357.031V297.656ZM332.5 297.656H320.313V285.156H332.578V297.656H332.5ZM308.047 297.656H295.781V285.156H308.047V297.656ZM283.516 297.656H271.25V285.156H283.516V297.656ZM258.984 297.656H246.719V285.156H258.984V297.656ZM234.531 297.656H222.266V285.156H234.531V297.656ZM210 297.656H197.734V285.156H210V297.656ZM185.469 297.656H173.203V285.156H185.469V297.656ZM161.016 297.656H148.75V285.156H161.016V297.656ZM136.484 297.656H124.219V285.156H136.484V297.656ZM99.4531 285.156H111.953V297.656H99.4531V285.156ZM111.953 657.422H99.4531V644.609H111.953V657.422ZM111.953 631.719H99.4531V618.906H111.953V631.719ZM111.953 606.094H99.4531V593.281H111.953V606.094ZM111.953 580.391H99.4531V567.578H111.953V580.391ZM111.953 554.688H99.4531V541.875H111.953V554.688ZM111.953 528.984H99.4531V516.172H111.953V528.984ZM111.953 503.281H99.4531V490.469H111.953V503.281ZM111.953 477.578H99.4531V464.766H111.953V477.578ZM111.953 451.875H99.4531V439.062H111.953V451.875ZM111.953 426.172H99.4531V413.359H111.953V426.172ZM111.953 400.469H99.4531V387.656H111.953V400.469ZM111.953 374.766H99.4531V361.953H111.953V374.766ZM111.953 349.062H99.4531V336.25H111.953V349.062ZM111.953 323.359H99.4531V310.547H111.953V323.359ZM99.4531 670.312H111.953V682.812H99.4531V670.312ZM675.625 682.812H663.359V670.312H675.625V682.812ZM651.094 682.812H638.828V670.312H651.094V682.812ZM626.641 682.812H614.375V670.312H626.641V682.812ZM602.109 682.812H589.844V670.312H602.109V682.812ZM577.578 682.812H565.312V670.312H577.578V682.812ZM553.125 682.812H540.859V670.312H553.125V682.812ZM528.594 682.812H516.328V670.312H528.594V682.812ZM504.063 682.812H491.797V670.312H504.063V682.812ZM479.609 682.812H467.344V670.312H479.609V682.812ZM455.078 682.812H442.812V670.312H455.078V682.812ZM430.547 682.812H418.281V670.312H430.547V682.812ZM406.016 682.812H393.75V670.312H406.016V682.812ZM381.562 682.812H369.297V670.312H381.562V682.812ZM357.031 682.812H344.766V670.312H357.031V682.812ZM332.5 682.812H320.313V670.312H332.578V682.812H332.5ZM308.047 682.812H295.781V670.312H308.047V682.812ZM283.516 682.812H271.25V670.312H283.516V682.812ZM258.984 682.812H246.719V670.312H258.984V682.812ZM234.531 682.812H222.266V670.312H234.531V682.812ZM210 682.812H197.734V670.312H210V682.812ZM185.469 682.812H173.203V670.312H185.469V682.812ZM161.016 682.812H148.75V670.312H161.016V682.812ZM136.484 682.812H124.219V670.312H136.484V682.812ZM687.891 670.312H700.391V682.812H687.891V670.312ZM700.391 657.422H687.891V644.609H700.391V657.422ZM700.391 631.719H687.891V618.906H700.391V631.719ZM700.391 606.094H687.891V593.281H700.391V606.094ZM700.391 580.391H687.891V567.578H700.391V580.391ZM700.391 554.688H687.891V541.875H700.391V554.688ZM700.391 528.984H687.891V516.172H700.391V528.984ZM700.391 503.281H687.891V490.469H700.391V503.281ZM700.391 477.578H687.891V464.766H700.391V477.578ZM700.391 451.875H687.891V439.062H700.391V451.875ZM700.391 426.172H687.891V413.359H700.391V426.172ZM700.391 400.469H687.891V387.656H700.391V400.469ZM700.391 374.766H687.891V361.953H700.391V374.766ZM700.391 349.062H687.891V336.25H700.391V349.062ZM700.391 323.359H687.891V310.547H700.391V323.359Z" fill="#0A0408"/>
<path d="M150.547 344.297H654.609V699.687H150.547V344.297Z" fill="#EBB866"/>
<path d="M56.1719 675.391H743.75V740.938H56.1719V675.391Z" fill="white"/>
<path d="M749.922 747.188H49.9219V669.141H750V747.188H749.922ZM62.4219 734.688H737.5V681.641H62.4219V734.688Z" fill="#0A0408"/>
<path d="M245.703 261.016H311.641V510.781H245.703V261.016Z" fill="#55B7A8"/>
<path d="M317.891 517.031H239.453V254.766H317.891V517.031ZM251.953 504.531H305.391V267.266H251.953V504.531Z" fill="#0A0408"/>
<path d="M371.328 113.828H437.266V510.781H371.328V113.828Z" fill="#DC444A"/>
<path d="M443.437 517.031H365.078V107.578H443.516V517.031H443.437ZM377.578 504.531H431.016V120.078H377.578V504.531Z" fill="#0A0408"/>
<path d="M496.875 188.906H562.813V510.781H496.875V188.906Z" fill="#68A4D9"/>
<path d="M569.063 517.031H490.625V182.656H569.063V517.031ZM503.125 504.531H556.563V195.156H503.125V504.531Z" fill="#0A0408"/>
<path d="M245.703 241.172H311.641V327.734H245.703V241.172Z" fill="white"/>
<path d="M317.891 333.984H239.453V234.922H317.891V333.984ZM251.953 321.484H305.391V247.422H251.953V321.484Z" fill="#0A0408"/>
<path d="M371.328 81.25H437.266V167.812H371.328V81.25Z" fill="white"/>
<path d="M443.437 174.062H365.078V75H443.516V174.062H443.437ZM377.578 161.562H431.016V87.5H377.578V161.562Z" fill="#0A0408"/>
<path d="M496.875 174.453H562.813V261.016H496.875V174.453Z" fill="white"/>
<path d="M569.063 267.266H490.625V168.203H569.063V267.266ZM503.125 254.766H556.563V180.703H503.125V254.766Z" fill="#0A0408"/>
<path d="M245.703 579.844H251.953V592.344H245.703V579.844ZM544.375 592.344H532.188V579.844H544.375V592.344ZM520 592.344H507.812V579.844H520V592.344ZM495.625 592.344H483.437V579.844H495.625V592.344ZM471.25 592.344H459.062V579.844H471.25V592.344ZM446.875 592.344H434.688V579.844H446.875V592.344ZM422.5 592.344H410.313V579.844H422.5V592.344ZM398.203 592.344H386.016V579.844H398.203V592.344ZM373.828 592.344H361.641V579.844H373.828V592.344ZM349.453 592.344H337.266V579.844H349.453V592.344ZM325.078 592.344H312.891V579.844H325.078V592.344ZM300.703 592.344H288.516V579.844H300.703V592.344ZM276.328 592.344H264.141V579.844H276.328V592.344ZM556.563 579.844H562.813V592.344H556.563V579.844Z" fill="#0A0408"/>
<path d="M85.8594 271.562H125.625V311.328H85.8594V271.562Z" fill="#DC444A"/>
<path d="M131.875 317.578H79.6094V265.312H131.875V317.578ZM92.1094 305.078H119.375V277.812H92.1094V305.078Z" fill="#0A0408"/>
<path d="M674.766 271.016H714.531V310.781H674.766V271.016Z" fill="#DC444A"/>
<path d="M720.781 316.953H668.516V264.688H720.781V316.953ZM681.016 304.453H708.281V277.188H681.016V304.453Z" fill="#0A0408"/>
</svg>
