<svg width="800" height="800" viewBox="0 0 800 800" fill="none" xmlns="http://www.w3.org/2000/svg">
<path d="M335.859 145.859V463.359H654.219C651.094 490 644.219 515.937 633.75 540.781C619.375 574.844 598.75 605.391 572.422 631.641C546.172 657.891 515.547 678.516 481.484 692.891C446.25 707.813 408.828 715.312 370.156 715.312C331.562 715.312 294.062 707.734 258.828 692.891C224.766 678.516 194.219 657.891 167.891 631.641C141.641 605.391 121.016 574.844 106.641 540.781C91.7188 505.547 84.2188 468.125 84.2188 429.531C84.2188 390.937 91.7969 353.516 106.641 318.281C121.016 284.219 141.641 253.672 167.891 227.422C194.141 201.172 224.766 180.547 258.828 166.172C283.594 155.859 309.375 149.062 335.859 145.859ZM370.234 109.453C193.359 109.453 49.9219 252.813 49.9219 429.609C49.9219 606.406 193.359 749.766 370.234 749.766C547.109 749.766 690.547 606.406 690.547 429.609V428.984H370.234V109.453Z" fill="#39393A"/>
<path d="M442.266 62.8906C476.406 64.2188 509.766 71.1719 541.484 83.5156C575.859 96.875 607.266 116.172 634.922 140.938C690.938 191.016 726.641 259.453 735.469 333.672C736.406 341.406 737.031 349.297 737.344 357.266H442.266V62.8906ZM429.766 50.1562V369.688H750.078C750.078 356.953 749.297 344.453 747.813 332.109C728.984 173.359 593.75 50.1562 429.766 50.1562ZM206.797 601.875C188.75 583.828 173.75 563.516 162.031 541.172L150.547 546.25C178.438 599.531 223.984 642.109 279.453 666.172L282.813 653.984C254.453 641.484 228.828 623.984 206.797 601.875Z" fill="#E73B37"/>
</svg>
