<svg width="800" height="800" viewBox="0 0 800 800" fill="none" xmlns="http://www.w3.org/2000/svg">
<path d="M635.227 186.125H156.918C156.918 186.125 128.902 194.972 128.902 248.055C128.902 301.138 156.918 311.459 156.918 311.459H635.227C635.227 311.459 611.138 301.137 611.138 248.791C611.138 196.446 635.227 186.125 635.227 186.125Z" fill="#FCE3C3"/>
<path d="M653.211 321.224H155.177L153.542 320.622C152.138 320.105 119.137 307.266 119.137 248.054C119.137 188.5 152.555 177.262 153.978 176.813L155.413 176.359H653.211V195.891H158.933C154.462 198.224 138.669 209.222 138.669 248.055C138.669 286.82 154.431 298.927 159.177 301.693H653.211V321.224Z" fill="#300604"/>
<path d="M200.586 215.615H381.237V230.36H200.586V215.615ZM304.948 242.916H574.205V260.918H304.948V242.916ZM205.094 272.967H322.856V290.969H205.094V272.967Z" fill="#ED8F27"/>
<path d="M708.607 338.474H230.299C230.299 338.474 202.283 347.32 202.283 400.403C202.283 453.486 230.299 463.807 230.299 463.807H708.607C708.607 463.807 684.519 453.485 684.519 401.14C684.519 348.795 708.607 338.474 708.607 338.474Z" fill="#FCE3C3"/>
<path d="M726.592 473.573H228.557L226.923 472.97C225.518 472.453 192.518 459.614 192.518 400.403C192.518 340.849 225.936 329.61 227.359 329.161L228.794 328.708H726.593V348.239H232.313C227.842 350.573 212.049 361.57 212.049 400.403C212.049 439.169 227.811 451.276 232.557 454.042H726.592V473.573Z" fill="#300604"/>
<path d="M277.232 423.099H614.205V441.101H277.232V423.099Z" fill="#ED8F27"/>
<path d="M618.793 490.315H140.484C140.484 490.315 112.469 499.162 112.469 552.245C112.469 605.328 140.484 615.649 140.484 615.649H618.793C618.793 615.649 594.705 605.327 594.705 552.982C594.705 500.637 618.793 490.315 618.793 490.315Z" fill="#FCE3C3"/>
<path d="M636.777 625.415H138.742L137.108 624.812C135.702 624.294 102.703 611.455 102.703 552.244C102.703 492.69 136.12 481.452 137.543 481.003L138.979 480.55H636.778V500.081H142.498C138.027 502.415 122.234 513.412 122.234 552.245C122.234 591.01 137.995 603.118 142.741 605.883H636.776V625.415H636.777Z" fill="#300604"/>
<path d="M207.584 553.686L168.316 668.756L288.032 623.729L207.584 553.686Z" fill="#FCE3C3"/>
<path d="M245.484 581.394L288.033 623.73L544.547 367.684L504.216 330.238L245.484 581.394Z" fill="#B12800"/>
<path d="M209.582 546.107L252.13 588.443L508.645 332.396L468.314 294.951L209.582 546.107Z" fill="#ED8F27"/>
<path d="M504.217 257.761L550.107 213.062L582.205 210.699L623.39 252.484L625.782 285.297L574.076 338.155L504.217 257.761Z" fill="#228E9D"/>
<path d="M283.385 629.489L207.586 553.686C206.958 553.059 206.461 552.315 206.122 551.495C205.782 550.676 205.607 549.797 205.607 548.91C205.607 548.024 205.782 547.145 206.122 546.326C206.461 545.506 206.958 544.762 207.586 544.135L537.461 214.262C546.264 205.457 558.203 200.922 570.761 201.705C581.682 202.385 591.833 207.597 599.572 215.334L622.812 238.573C639.668 255.428 639.67 282.757 622.814 299.613L292.936 629.489C292.309 630.117 291.564 630.614 290.745 630.953C289.925 631.293 289.047 631.468 288.16 631.468C287.273 631.468 286.395 631.293 285.576 630.953C284.756 630.614 284.012 630.117 283.385 629.489ZM223.198 548.91L288.161 613.878L612.62 289.418C623.825 278.214 623.823 259.976 612.618 248.768L588.303 224.456C582.875 219.025 575.657 216.035 567.98 216.035C560.304 216.035 553.086 219.025 547.655 224.456L223.198 548.91Z" fill="#300604"/>
<path d="M544.548 367.689L469.391 292.532L501.222 260.7L576.379 335.857L544.548 367.689Z" fill="#300604"/>
<path d="M544.546 377.876L459.191 292.525L501.221 250.499L586.572 335.85L544.546 377.876ZM479.584 292.525L544.547 357.487L566.184 335.851L501.221 270.888L479.584 292.525Z" fill="#300604"/>
<path d="M582.58 297.843L572.385 287.648L586.534 273.502C589.084 270.949 589.084 266.795 586.531 264.242L579.681 257.39L589.876 247.195L596.728 254.048C604.899 262.223 604.899 275.52 596.73 283.697L582.58 297.843ZM499.216 327.656L509.412 337.85L255.679 591.581L245.484 581.387L499.216 327.656Z" fill="#300604"/>
<path d="M156.049 681.026L206.25 546.39L219.757 551.43L180.586 656.489L285.642 617.317L290.679 630.825L156.049 681.026Z" fill="#300604"/>
<path d="M168.316 668.756L213.065 648.515L188.557 624.007L168.316 668.756Z" fill="#300604"/>
<path d="M153.871 683.204L186.284 611.535L225.536 650.786L153.871 683.204ZM190.833 636.476L182.764 654.311L200.599 646.243L190.833 636.476Z" fill="#300604"/>
</svg>
