<svg width="800" height="800" viewBox="0 0 800 800" fill="none" xmlns="http://www.w3.org/2000/svg">
<path d="M145.879 176.146H164.736V200.103H145.879V176.146ZM186.547 176.146H205.404V200.103H186.547V176.146ZM227.214 176.146H246.071V200.103H227.214V176.146ZM600.81 396.852L588.359 387.413L641.248 317.643L593.164 270.536L604.098 259.374L662.014 316.114L600.81 396.852Z" fill="#300604"/>
<path d="M644.625 199.054L621.204 175.633L582.261 214.577C561.691 203.122 535.85 204.618 516.65 219.055L601.203 303.608C615.641 284.409 617.136 258.568 605.682 237.998L644.625 199.054Z" fill="#B12800"/>
<path d="M602.04 315.494L504.766 218.219L511.955 212.812C531.855 197.847 558.251 195.029 580.716 205.073L621.205 164.585L655.674 199.054L615.185 239.543C625.228 262.008 622.412 288.404 607.447 308.304L602.04 315.494ZM529.105 220.462L599.797 291.152C607.618 275.759 607.447 257.223 598.856 241.797L595.987 236.644L633.577 199.053L621.205 186.68L583.614 224.271L578.46 221.401C563.034 212.811 544.499 212.64 529.105 220.462Z" fill="#300604"/>
<path d="M639.224 415.946C632.041 397.534 614.147 384.482 593.192 384.482C572.238 384.482 554.342 397.534 547.16 415.946H639.224Z" fill="#B12800"/>
<path d="M650.659 423.76H535.727L539.882 413.107C548.517 390.973 569.443 376.67 593.193 376.67C616.943 376.67 637.869 390.973 646.504 413.107L650.659 423.76ZM560.496 408.135H625.889C618.158 398.256 606.262 392.296 593.192 392.296C580.122 392.296 568.228 398.257 560.496 408.135Z" fill="#300604"/>
<path d="M319.015 202.686C319.015 202.686 318.311 272.248 332.614 297.346C346.917 322.443 387.152 332.163 387.152 332.163L416.569 307.107C416.569 307.107 443.13 274.551 442.215 258.631C441.299 242.711 420.244 164.686 420.244 164.686L319.015 202.686Z" fill="#FCE3C3"/>
<path d="M380.614 332.489C373.972 332.489 367.33 331.429 361.006 329.305C348.767 325.205 338.127 317.36 330.592 306.88C323.056 296.4 319.007 283.817 319.016 270.909V202.686H332.091V270.909C332.085 281.077 335.275 290.989 341.211 299.245C347.147 307.5 355.528 313.68 365.17 316.91C375.13 320.251 386.098 320.251 396.059 316.91C405.701 313.68 414.082 307.5 420.019 299.245C425.955 290.99 429.146 281.077 429.139 270.909V202.686H442.215V270.909C442.224 283.817 438.173 296.401 430.637 306.88C423.101 317.36 412.461 325.205 400.222 329.305C393.902 331.429 387.259 332.489 380.614 332.489Z" fill="#300604"/>
<path d="M380.613 334.577C373.666 334.577 366.845 333.469 360.34 331.284C347.686 327.044 336.685 318.934 328.894 308.099C321.103 297.265 316.916 284.254 316.926 270.909V200.598H334.178V270.909C334.172 280.64 337.225 290.126 342.906 298.026C348.586 305.926 356.607 311.84 365.833 314.931C375.364 318.129 385.862 318.127 395.395 314.931C404.621 311.84 412.642 305.926 418.323 298.026C424.004 290.126 427.057 280.64 427.051 270.909V200.598H444.302V270.909C444.312 284.255 440.124 297.265 432.333 308.1C424.541 318.934 413.54 327.045 400.886 331.284C394.383 333.469 387.562 334.577 380.613 334.577ZM321.102 204.772V270.909C321.093 283.379 325.005 295.536 332.286 305.66C339.566 315.785 349.845 323.364 361.67 327.325C367.746 329.366 374.12 330.402 380.613 330.402C387.109 330.402 393.482 329.366 399.556 327.325C411.381 323.364 421.661 315.785 428.942 305.661C436.222 295.537 440.135 283.379 440.127 270.909V204.772H431.226V270.909C431.232 281.514 427.905 291.853 421.713 300.463C415.521 309.074 406.779 315.519 396.723 318.888C386.334 322.374 374.893 322.374 364.505 318.888C354.449 315.519 345.707 309.073 339.516 300.463C333.324 291.853 329.996 281.514 330.003 270.909V204.772H321.102Z" fill="#300604"/>
<path d="M387.151 436.813H263.35V378.277L344.593 307.095L349.294 308.006L350.605 308.999C355.04 312.494 359.939 315.154 365.167 316.91C370.145 318.583 375.362 319.436 380.614 319.435H387.152V436.813H387.151Z" fill="#300604"/>
<path d="M389.239 438.9H261.262V377.328L343.986 304.85L350.168 306.047L351.866 307.335C356.139 310.701 360.827 313.248 365.831 314.93C370.595 316.531 375.587 317.347 380.613 317.346H389.239V438.9ZM265.437 434.725H385.063V321.521H380.613C375.135 321.522 369.694 320.633 364.502 318.889C359.041 317.054 353.931 314.279 349.312 310.638L348.419 309.961L345.198 309.337L265.437 379.222V434.725Z" fill="#300604"/>
<path d="M276.426 423.736H374.075V332.163C369.627 331.689 365.245 330.731 361.005 329.305C356.033 327.635 351.297 325.328 346.916 322.443L276.426 384.206V423.736Z" fill="#228E9D"/>
<path d="M497.879 436.813H374.076V319.434H380.614C385.866 319.435 391.083 318.583 396.061 316.91C401.293 315.154 406.192 312.492 410.621 309.001L411.868 308.017L416.569 307.106L419.042 309.203L497.879 378.276V436.813Z" fill="#300604"/>
<path d="M499.968 438.9H371.988V317.346H380.614C385.649 317.346 390.623 316.534 395.397 314.93C400.399 313.252 405.087 310.705 409.329 307.362L410.973 306.065L417.156 304.867L420.393 307.612L499.969 377.33L499.968 438.9ZM376.164 434.725H495.793V379.223L417.666 310.773L415.984 309.347L412.763 309.971L411.913 310.641C407.293 314.281 402.184 317.056 396.726 318.889C391.533 320.634 386.092 321.523 380.614 321.521H376.164V434.725Z" fill="#300604"/>
<path d="M387.152 423.736H484.804V384.206L414.313 322.443C409.932 325.328 405.197 327.634 400.224 329.305C395.984 330.731 391.601 331.69 387.152 332.163V423.736Z" fill="#228E9D"/>
<path d="M315.704 229.398C315.704 229.398 296.847 144.298 380.623 144.298C464.399 144.298 438.39 231.952 438.39 231.952C438.39 231.952 427.887 194.821 413.061 192.413C396.726 189.759 375.869 243.825 315.704 229.398Z" fill="#ED8F27"/>
<path d="M438.392 239.468H438.344C436.715 239.457 435.134 238.918 433.839 237.931C432.543 236.945 431.603 235.564 431.16 233.997C425.716 214.828 416.617 200.604 411.858 199.831H411.82C409.651 199.831 403.189 205.744 398.905 209.666C383.553 223.718 357.861 247.238 313.952 236.707C312.582 236.378 311.332 235.671 310.345 234.667C309.357 233.662 308.672 232.4 308.367 231.025C307.984 229.296 299.241 188.365 321.47 160.671C334.194 144.82 354.095 136.783 380.624 136.783C406.58 136.783 425.652 144.704 437.312 160.325C458.656 188.922 446.141 232.259 445.597 234.09C445.136 235.643 444.186 237.006 442.887 237.975C441.589 238.944 440.012 239.468 438.392 239.468ZM322.27 223.102C355.427 229.075 374.591 211.542 388.755 198.577C397.581 190.497 405.207 183.528 414.266 184.993C421.753 186.209 428.471 192.199 434.688 203.239C434.702 191.956 432.631 179.155 425.234 169.272C416.563 157.687 401.554 151.812 380.624 151.812C358.88 151.812 342.921 157.957 333.193 170.078C324.047 181.471 321.756 196.476 321.445 207.056C321.292 212.418 321.568 217.784 322.27 223.102Z" fill="#300604"/>
<path d="M106.746 305.611H228.445V414.041H106.746V305.611Z" fill="#B12800"/>
<path d="M107.51 414.041V471.064H162.665V671.196H607.328V471.064H662.484V414.041H107.51Z" fill="#ED8F27"/>
<path d="M607.328 679.387H162.665L154.474 671.196V479.255H107.51L99.3184 471.064V414.041L107.51 405.85H662.484L670.675 414.041V471.064L662.484 479.255H615.52V671.196L607.328 679.387ZM170.857 663.004H599.136V471.064L607.328 462.872H654.292V422.232H115.701V462.872H162.665L170.857 471.064L170.857 663.004Z" fill="#300604"/>
<path d="M106.746 305.611H228.445V322.87H106.746V305.611ZM106.746 344.557H228.445V361.816H106.746V344.557ZM106.746 383.503H228.445V400.761H106.746V383.503Z" fill="#300604"/>
<path d="M107.51 414.041H662.484V474.718H107.51V414.041Z" fill="#ED8F27"/>
<path d="M662.485 483.167H107.511L99.0605 474.718V414.041L107.511 405.592H662.485L670.935 414.041V474.718L662.485 483.167ZM115.961 466.268H654.035V422.49H115.961V466.268Z" fill="#300604"/>
</svg>
