<svg width="800" height="800" viewBox="0 0 800 800" fill="none" xmlns="http://www.w3.org/2000/svg">
<path d="M393.594 638.828H406.094V739.531H393.594V638.828ZM393.516 48.9844H406.016V148.75H393.516V48.9844Z" fill="#0A0408"/>
<path d="M399.766 167.188H696.016V636.484H103.594V167.188H399.766Z" fill="white"/>
<path d="M399.766 160.938H406.016V173.438H399.766V160.938ZM677.422 173.438H665.078V160.938H677.422V173.438ZM652.734 173.438H640.391V160.938H652.734V173.438ZM628.047 173.438H615.703V160.938H628.047V173.438ZM603.359 173.438H591.016V160.938H603.359V173.438ZM578.75 173.438H566.406V160.938H578.75V173.438ZM554.063 173.438H541.719V160.938H554.063V173.438ZM529.375 173.438H517.031V160.938H529.375V173.438ZM504.688 173.438H492.344V160.938H504.688V173.438ZM480.078 173.438H467.734V160.938H480.078V173.438ZM455.391 173.438H443.047V160.938H455.391V173.438ZM430.703 173.438H418.359V160.938H430.703V173.438ZM689.766 160.938H702.266V173.438H689.766V160.938ZM702.266 617.891H689.766V605.547H702.266V617.891ZM702.266 593.203H689.766V580.859H702.266V593.203ZM702.266 568.516H689.766V556.172H702.266V568.516ZM702.266 543.828H689.766V531.484H702.266V543.828ZM702.266 519.141H689.766V506.797H702.266V519.141ZM702.266 494.453H689.766V482.109H702.266V494.453ZM702.266 469.766H689.766V457.422H702.266V469.766ZM702.266 445.078H689.766V432.734H702.266V445.078ZM702.266 420.391H689.766V408.047H702.266V420.391ZM702.266 395.703H689.766V383.359H702.266V395.703ZM702.266 370.937H689.766V358.594H702.266V370.937ZM702.266 346.25H689.766V333.906H702.266V346.25ZM702.266 321.562H689.766V309.219H702.266V321.562ZM702.266 296.875H689.766V284.531H702.266V296.875ZM702.266 272.187H689.766V259.844H702.266V272.187ZM702.266 247.5H689.766V235.156H702.266V247.5ZM702.266 222.813H689.766V210.469H702.266V222.813ZM702.266 198.125H689.766V185.781H702.266V198.125ZM689.766 630.234H702.266V642.734H689.766V630.234ZM677.422 642.734H665.078V630.234H677.422V642.734ZM652.734 642.734H640.391V630.234H652.734V642.734ZM628.047 642.734H615.703V630.234H628.047V642.734ZM603.359 642.734H591.016V630.234H603.359V642.734ZM578.672 642.734H566.328V630.234H578.672V642.734ZM553.984 642.734H541.641V630.234H553.984V642.734ZM529.375 642.734H517.031V630.234H529.375V642.734ZM504.688 642.734H492.344V630.234H504.688V642.734ZM480 642.734H467.656V630.234H480V642.734ZM455.312 642.734H442.969V630.234H455.312V642.734ZM430.625 642.734H418.281V630.234H430.625V642.734ZM405.937 642.734H393.594V630.234H405.937V642.734ZM381.328 642.734H368.984V630.234H381.328V642.734ZM356.641 642.734H344.297V630.234H356.641V642.734ZM331.953 642.734H319.609V630.234H331.953V642.734ZM307.266 642.734H294.922V630.234H307.266V642.734ZM282.578 642.734H270.234V630.234H282.578V642.734ZM257.891 642.734H245.547V630.234H257.891V642.734ZM233.203 642.734H220.859V630.234H233.203V642.734ZM208.594 642.734H196.25V630.234H208.594V642.734ZM183.906 642.734H171.563V630.234H183.906V642.734ZM159.219 642.734H146.875V630.234H159.219V642.734ZM134.531 642.734H122.187V630.234H134.531V642.734ZM97.3438 630.234H109.844V642.734H97.3438V630.234ZM109.844 617.891H97.3438V605.547H109.844V617.891ZM109.844 593.203H97.3438V580.859H109.844V593.203ZM109.844 568.516H97.3438V556.172H109.844V568.516ZM109.844 543.828H97.3438V531.484H109.844V543.828ZM109.844 519.141H97.3438V506.797H109.844V519.141ZM109.844 494.453H97.3438V482.109H109.844V494.453ZM109.844 469.766H97.3438V457.422H109.844V469.766ZM109.844 445.078H97.3438V432.734H109.844V445.078ZM109.844 420.391H97.3438V408.047H109.844V420.391ZM109.844 395.703H97.3438V383.359H109.844V395.703ZM109.844 370.937H97.3438V358.594H109.844V370.937ZM109.844 346.25H97.3438V333.906H109.844V346.25ZM109.844 321.562H97.3438V309.219H109.844V321.562ZM109.844 296.875H97.3438V284.531H109.844V296.875ZM109.844 272.187H97.3438V259.844H109.844V272.187ZM109.844 247.5H97.3438V235.156H109.844V247.5ZM109.844 222.813H97.3438V210.469H109.844V222.813ZM109.844 198.125H97.3438V185.781H109.844V198.125ZM97.3438 160.938H109.844V173.438H97.3438V160.938ZM381.25 173.438H368.906V160.938H381.25V173.438ZM356.562 173.438H344.219V160.938H356.562V173.438ZM331.875 173.438H319.531V160.938H331.875V173.438ZM307.188 173.438H294.844V160.938H307.188V173.438ZM282.578 173.438H270.234V160.938H282.578V173.438ZM257.891 173.438H245.547V160.938H257.891V173.438ZM233.203 173.438H220.859V160.938H233.203V173.438ZM208.516 173.438H196.172V160.938H208.516V173.438ZM183.828 173.438H171.484V160.938H183.828V173.438ZM159.219 173.438H146.875V160.938H159.219V173.438ZM134.531 173.438H122.187V160.938H134.531V173.438ZM393.516 160.938H399.766V173.438H393.516V160.938ZM260.703 748.125L254.766 737.109L399.844 658.281L542.031 737.188L535.938 748.125L399.766 672.5L260.703 748.125Z" fill="#0A0408"/>
<path d="M589.531 420.078C589.531 478.594 542.109 526.016 483.594 526.016C425.078 526.016 377.656 478.594 377.656 420.078C377.656 361.563 425.078 314.141 483.594 314.141V420.078H589.531Z" fill="#55B7A8"/>
<path d="M483.594 532.344C421.719 532.344 371.406 482.031 371.406 420.156C371.406 358.281 421.719 307.891 483.594 307.891H489.844V413.828H595.781V420.078C595.781 481.953 545.469 532.344 483.594 532.344ZM477.344 320.625C425.234 323.828 383.906 367.266 383.906 420.156C383.906 475.156 428.672 519.844 483.594 519.844C536.484 519.844 579.844 478.437 583.125 426.406H477.344V320.625Z" fill="#0A0408"/>
<path d="M620.703 401.406H502.266V282.969H508.516C570.391 282.969 620.703 333.281 620.703 395.156V401.406ZM514.766 388.906H608.047C604.922 338.906 564.766 298.75 514.766 295.625V388.906Z" fill="#0A0408"/>
<path d="M586.25 373.281C586.25 342.422 561.25 317.422 530.391 317.422V373.281H586.25Z" fill="#DC444A"/>
<path d="M178.984 455.625H191.484V526.094H178.984V455.625ZM225.547 321.484H238.047V526.094H225.547V321.484ZM272.109 400.391H284.609V526.094H272.109V400.391ZM318.672 479.297H331.172V526.094H318.672V479.297Z" fill="#0A0408"/>
<path d="M83.5156 147.109H123.672V187.266H83.5156V147.109Z" fill="#DC444A"/>
<path d="M129.922 193.516H77.2656V140.859H129.922V193.516ZM89.7656 181.016H117.422V153.359H89.7656V181.016Z" fill="#0A0408"/>
<path d="M83.5156 617.969H123.672V658.125H83.5156V617.969Z" fill="#DC444A"/>
<path d="M129.922 664.375H77.2656V611.719H129.922V664.375ZM89.7656 651.875H117.422V624.219H89.7656V651.875Z" fill="#0A0408"/>
<path d="M675.938 147.109H716.094V187.266H675.938V147.109Z" fill="#DC444A"/>
<path d="M722.344 193.516H669.688V140.859H722.344V193.516ZM682.188 181.016H709.844V153.359H682.188V181.016Z" fill="#0A0408"/>
<path d="M675.938 617.969H716.094V658.125H675.938V617.969Z" fill="#DC444A"/>
<path d="M722.344 664.375H669.688V611.719H722.344V664.375ZM682.188 651.875H709.844V624.219H682.188V651.875Z" fill="#0A0408"/>
</svg>
