<svg width="800" height="800" viewBox="0 0 800 800" fill="none" xmlns="http://www.w3.org/2000/svg">
<path d="M315.859 413.359H345.469V455.313H315.859V413.359Z" fill="#D5D9CF"/>
<path d="M349.766 459.609H311.562V409.062H349.766V459.609ZM320.156 451.016H341.172V417.656H320.156V451.016Z" fill="#333336"/>
<path d="M457.109 413.359H486.719V455.313H457.109V413.359Z" fill="#D5D9CF"/>
<path d="M491.016 459.609H452.812V409.062H491.016V459.609ZM461.406 451.016H482.422V417.656H461.406V451.016Z" fill="#333336"/>
<path d="M508.203 587.109H414.297V490.703H386.328V587.109H295.859C294.063 587.109 292.578 588.594 292.578 590.391V605.938C292.578 607.734 294.063 609.219 295.859 609.219H508.203C510 609.219 511.484 607.734 511.484 605.938V590.391C511.484 588.594 510 587.109 508.203 587.109Z" fill="#D5D9CF"/>
<path d="M508.203 613.516H295.859C291.641 613.516 288.281 610.078 288.281 605.938V590.391C288.281 586.172 291.719 582.813 295.859 582.813H382.109V486.406H418.672V582.813H508.203C512.422 582.813 515.781 586.25 515.781 590.391V605.938C515.781 610.078 512.344 613.516 508.203 613.516ZM296.797 604.922H507.109V591.406H410V495H390.625V591.406H296.797V604.922Z" fill="#333336"/>
<path d="M167.266 326.094H632.656V416.484H167.266V326.094Z" fill="#D8A128"/>
<path d="M637.031 420.781H162.969V321.797H636.953V420.781H637.031ZM171.562 412.187H628.359V330.391H171.562V412.187Z" fill="#333336"/>
<path d="M146.953 335.703H190.391V649.766H146.953V335.703Z" fill="#FFD632"/>
<path d="M194.766 654.062H142.734V331.406H194.766V654.062ZM151.25 645.469H186.094V340H151.25V645.469Z" fill="#333336"/>
<path d="M612.734 335.703H655.234V649.766H612.734V335.703Z" fill="#FFD632"/>
<path d="M659.531 654.062H608.438V331.406H659.531V654.062ZM617.031 645.469H650.938V340H617.031V645.469Z" fill="#333336"/>
<path d="M130.469 295.625H669.453V343.516H130.469V295.625Z" fill="#FFD632"/>
<path d="M673.828 347.813H126.172V291.328H673.75V347.813H673.828ZM134.766 339.219H665.156V299.922H134.766V339.219Z" fill="#333336"/>
<path d="M517.187 416.719H285.234L270.39 178.516C269.531 163.125 281.719 150.156 297.187 150.156H505.312C520.703 150.156 532.969 163.125 532.109 178.516L517.187 416.719Z" fill="#68A240"/>
<path d="M521.172 421.016H281.172L266.094 178.828C265.625 170.156 268.594 161.953 274.531 155.703C280.469 149.453 288.516 145.938 297.11 145.938H505.235C513.906 145.938 521.875 149.375 527.813 155.703C533.75 161.953 536.719 170.234 536.25 178.828L521.172 421.016ZM289.219 412.422H513.125L527.735 178.281C528.125 172.031 525.938 166.094 521.641 161.562C517.344 157.031 511.563 154.531 505.313 154.531H297.11C290.86 154.531 285.078 157.031 280.781 161.562C276.485 166.094 274.297 172.031 274.688 178.281L289.219 412.422Z" fill="#333336"/>
<path d="M517.188 490.703H285.156V460C285.156 450.625 292.812 442.969 302.187 442.969H500.156C509.531 442.969 517.188 450.625 517.188 460V490.703Z" fill="#68A240"/>
<path d="M521.484 495H280.859V460C280.859 448.203 290.469 438.672 302.187 438.672H500.156C511.953 438.672 521.484 448.281 521.484 460V495ZM289.453 486.406H512.891V460C512.891 452.969 507.188 447.266 500.156 447.266H302.187C295.156 447.266 289.453 452.969 289.453 460V486.406Z" fill="#333336"/>
<path d="M207.266 313.047H259.922V344.141H207.266V313.047Z" fill="#68A240"/>
<path d="M264.219 348.516H202.969V308.828H264.219V348.516ZM211.562 339.922H255.625V317.422H211.562V339.922Z" fill="#333336"/>
<path d="M287.891 469.063H229.297V340.078H237.891V460.469H287.891V469.063Z" fill="#333336"/>
<path d="M597.037 344.227H544.381V313.133H597.037V344.227Z" fill="#68A240"/>
<path d="M601.328 348.516H540.078V308.828H601.328V348.516ZM548.594 339.922H592.656V317.422H548.594V339.922Z" fill="#333336"/>
<path d="M575 469.063H516.328V460.469H566.406V340.078H575V469.063Z" fill="#333336"/>
<path d="M294.531 627.109C294.531 633.097 296.91 638.84 301.144 643.075C305.378 647.309 311.121 649.687 317.109 649.687C323.097 649.687 328.84 647.309 333.075 643.075C337.309 638.84 339.687 633.097 339.687 627.109C339.687 621.121 337.309 615.378 333.075 611.144C328.84 606.91 323.097 604.531 317.109 604.531C311.121 604.531 305.378 606.91 301.144 611.144C296.91 615.378 294.531 621.121 294.531 627.109Z" fill="#D5D9CF"/>
<path d="M317.109 654.062C302.266 654.062 290.234 642.031 290.234 627.187C290.234 612.344 302.266 600.312 317.109 600.312C331.953 600.312 343.984 612.344 343.984 627.187C343.984 642.031 331.953 654.062 317.109 654.062ZM317.109 608.828C307.031 608.828 298.828 617.031 298.828 627.109C298.828 637.187 307.031 645.391 317.109 645.391C327.187 645.391 335.391 637.187 335.391 627.109C335.391 617.031 327.187 608.828 317.109 608.828Z" fill="#333336"/>
<path d="M467.5 627.109C467.5 633.097 469.879 638.84 474.113 643.075C478.347 647.309 484.09 649.687 490.078 649.687C496.066 649.687 501.809 647.309 506.043 643.075C510.277 638.84 512.656 633.097 512.656 627.109C512.656 621.121 510.277 615.378 506.043 611.144C501.809 606.91 496.066 604.531 490.078 604.531C484.09 604.531 478.347 606.91 474.113 611.144C469.879 615.378 467.5 621.121 467.5 627.109Z" fill="#D5D9CF"/>
<path d="M490.078 654.062C475.234 654.062 463.203 642.031 463.203 627.187C463.203 612.344 475.234 600.312 490.078 600.312C504.922 600.312 516.953 612.344 516.953 627.187C516.953 642.031 504.922 654.062 490.078 654.062ZM490.078 608.828C480 608.828 471.797 617.031 471.797 627.109C471.797 637.187 480 645.391 490.078 645.391C500.156 645.391 508.359 637.187 508.359 627.109C508.359 617.031 500.156 608.828 490.078 608.828Z" fill="#333336"/>
<path d="M372.344 491.484H428.281V524.609H372.344V491.484Z" fill="#D5D9CF"/>
<path d="M432.656 528.906H368.125V487.188H432.656V528.906ZM376.641 520.313H423.984V495.781H376.641V520.313Z" fill="#333336"/>
</svg>
