<svg width="800" height="800" viewBox="0 0 800 800" fill="none" xmlns="http://www.w3.org/2000/svg">
<path d="M640.547 584.062H159.453C142.422 584.062 128.594 570.234 128.594 553.203V217.5C128.594 200.469 142.422 186.641 159.453 186.641H640.469C657.5 186.641 671.328 200.469 671.328 217.5V553.203C671.406 570.312 657.578 584.062 640.547 584.062Z" fill="#FFD632"/>
<path d="M640.547 588.359H159.453C140.078 588.359 124.297 572.578 124.297 553.203V217.5C124.297 198.125 140.078 182.344 159.453 182.344H640.469C659.844 182.344 675.625 198.125 675.625 217.5V553.203C675.703 572.656 659.922 588.359 640.547 588.359ZM159.453 190.938C144.844 190.938 132.891 202.891 132.891 217.5V553.203C132.891 567.812 144.844 579.766 159.453 579.766H640.469C655.078 579.766 667.031 567.812 667.031 553.203V217.5C667.031 202.891 655.078 190.938 640.469 190.938H159.453Z" fill="#333336"/>
<path d="M231.641 598.906H277.187V630.078C277.187 637.969 270.781 644.453 262.812 644.453H245.937C238.047 644.453 231.562 638.047 231.562 630.078V598.906H231.641Z" fill="#FFC86B"/>
<path d="M262.812 648.75H245.937C235.625 648.75 227.266 640.391 227.266 630.078V594.609H281.406V630.078C281.484 640.391 273.125 648.75 262.812 648.75ZM235.938 603.203V630.078C235.938 635.625 240.469 640.156 246.016 640.156H262.891C268.438 640.156 272.969 635.625 272.969 630.078V603.203H235.938Z" fill="#333336"/>
<path d="M344.531 246.328V197.813C344.531 174.844 325.859 156.172 302.891 156.172H205.938C182.969 156.172 164.297 174.844 164.297 197.813V246.328C164.297 265.625 170.391 283.516 180.703 298.203C185.781 305.391 188.437 314.063 188.437 322.813V447.969C188.437 456.797 185.781 465.391 180.703 472.578C170.391 487.266 164.297 505.156 164.297 524.453V573.75C164.297 596.328 182.578 614.609 205.156 614.609H303.75C326.328 614.609 344.609 596.328 344.609 573.75V524.453C344.609 505.156 338.594 487.344 328.281 472.734C323.203 465.469 320.469 456.797 320.469 447.891V322.891C320.469 313.984 323.125 305.312 328.281 298.047C338.438 283.359 344.531 265.547 344.531 246.328Z" fill="#68A240"/>
<path d="M303.672 618.828H205.156C180.313 618.828 160 598.594 160 573.672V524.375C160 504.766 165.938 486.016 177.188 470.078C181.719 463.672 184.141 456.016 184.141 447.891V322.813C184.141 314.766 181.719 307.109 177.188 300.625C165.938 284.688 160 265.859 160 246.328V197.813C160 172.5 180.625 151.875 205.938 151.875H302.891C328.203 151.875 348.828 172.5 348.828 197.813V246.328C348.828 265.859 342.891 284.609 331.719 300.547C327.109 307.031 324.688 314.766 324.688 322.969V447.891C324.688 456.016 327.109 463.75 331.719 470.312C342.891 486.25 348.828 505 348.828 524.531V573.828C348.828 598.594 328.594 618.828 303.672 618.828ZM205.938 160.469C185.391 160.469 168.594 177.188 168.594 197.813V246.328C168.594 264.141 173.984 281.172 184.219 295.703C189.766 303.594 192.734 312.969 192.734 322.813V447.969C192.734 457.813 189.766 467.188 184.219 475.078C173.984 489.609 168.594 506.641 168.594 524.453V573.75C168.594 593.906 185 610.313 205.156 610.313H303.75C323.906 610.313 340.312 593.906 340.312 573.75V524.453C340.312 506.719 334.922 489.688 324.766 475.156C319.141 467.188 316.172 457.734 316.172 447.812V322.891C316.172 312.969 319.141 303.516 324.766 295.547C334.922 281.094 340.312 264.063 340.312 246.25V197.734C340.312 177.188 323.594 160.391 302.969 160.391H205.938V160.469Z" fill="#333336"/>
<path d="M609.844 341.797H387.031C380.781 341.797 375.703 336.719 375.703 330.469V248.125C375.703 241.875 380.781 236.797 387.031 236.797H609.844C616.094 236.797 621.172 241.875 621.172 248.125V330.469C621.172 336.719 616.094 341.797 609.844 341.797Z" fill="#D8A128"/>
<path d="M609.844 346.094H387.031C378.437 346.094 371.406 339.062 371.406 330.469V248.125C371.406 239.531 378.437 232.5 387.031 232.5H609.844C618.437 232.5 625.469 239.531 625.469 248.125V330.469C625.469 339.062 618.516 346.094 609.844 346.094ZM387.031 241.094C383.125 241.094 380 244.219 380 248.125V330.469C380 334.375 383.125 337.5 387.031 337.5H609.844C613.75 337.5 616.875 334.375 616.875 330.469V248.125C616.875 244.219 613.75 241.094 609.844 241.094H387.031ZM372.578 695C370.937 695 369.453 694.063 368.672 692.5C368.047 691.25 353.281 662.031 306.953 677.187C288.906 683.047 274.688 682.344 264.531 675C250.234 664.688 250.078 645.313 250.078 644.453C250.078 642.109 252.031 640.156 254.375 640.156C256.719 640.156 258.672 642.109 258.672 644.453C258.672 644.688 258.906 660.391 269.609 668.047C277.422 673.672 289.062 673.984 304.297 668.984C319.609 663.984 341.875 660.391 360.391 671.953C371.719 678.984 376.25 688.359 376.406 688.75C377.422 690.859 376.484 693.438 374.375 694.453C373.75 694.844 373.125 695 372.578 695Z" fill="#333336"/>
<path d="M429.687 446.016H384.922C381.25 446.016 378.203 443.047 378.203 439.297V394.531C378.203 390.859 381.172 387.812 384.922 387.812H429.687C433.359 387.812 436.406 390.781 436.406 394.531V439.297C436.328 442.969 433.359 446.016 429.687 446.016Z" fill="#D5D9CF"/>
<path d="M429.687 450.313H384.922C378.828 450.313 373.906 445.391 373.906 439.297V394.531C373.906 388.438 378.828 383.516 384.922 383.516H429.687C435.781 383.516 440.703 388.438 440.703 394.531V439.297C440.625 445.391 435.703 450.313 429.687 450.313ZM384.922 392.109C383.594 392.109 382.5 393.203 382.5 394.531V439.297C382.5 440.625 383.594 441.719 384.922 441.719H429.687C431.016 441.719 432.109 440.625 432.109 439.297V394.531C432.109 393.203 431.016 392.109 429.687 392.109H384.922Z" fill="#333336"/>
<path d="M521.328 446.016H476.562C472.891 446.016 469.844 443.047 469.844 439.297V394.531C469.844 390.859 472.812 387.812 476.562 387.812H521.328C525 387.812 528.047 390.781 528.047 394.531V439.297C528.047 442.969 525.078 446.016 521.328 446.016Z" fill="#D5D9CF"/>
<path d="M521.328 450.313H476.562C470.469 450.313 465.547 445.391 465.547 439.297V394.531C465.547 388.438 470.469 383.516 476.562 383.516H521.328C527.422 383.516 532.344 388.438 532.344 394.531V439.297C532.344 445.391 527.422 450.313 521.328 450.313ZM476.562 392.109C475.234 392.109 474.141 393.203 474.141 394.531V439.297C474.141 440.625 475.234 441.719 476.562 441.719H521.328C522.656 441.719 523.75 440.625 523.75 439.297V394.531C523.75 393.203 522.656 392.109 521.328 392.109H476.562Z" fill="#333336"/>
<path d="M613.047 446.016H568.281C564.609 446.016 561.562 443.047 561.562 439.297V394.531C561.562 390.859 564.531 387.812 568.281 387.812H613.047C616.719 387.812 619.766 390.781 619.766 394.531V439.297C619.766 442.969 616.719 446.016 613.047 446.016Z" fill="#D5D9CF"/>
<path d="M613.047 450.313H568.281C562.188 450.313 557.266 445.391 557.266 439.297V394.531C557.266 388.438 562.188 383.516 568.281 383.516H613.047C619.141 383.516 624.062 388.438 624.062 394.531V439.297C624.062 445.391 619.141 450.313 613.047 450.313ZM568.281 392.109C566.953 392.109 565.859 393.203 565.859 394.531V439.297C565.859 440.625 566.953 441.719 568.281 441.719H613.047C614.375 441.719 615.469 440.625 615.469 439.297V394.531C615.469 393.203 614.375 392.109 613.047 392.109H568.281Z" fill="#333336"/>
<path d="M429.687 540.312H384.922C381.25 540.312 378.203 537.344 378.203 533.594V488.828C378.203 485.156 381.172 482.109 384.922 482.109H429.687C433.359 482.109 436.406 485.078 436.406 488.828V533.594C436.328 537.344 433.359 540.312 429.687 540.312Z" fill="#D5D9CF"/>
<path d="M429.687 544.609H384.922C378.828 544.609 373.906 539.688 373.906 533.594V488.828C373.906 482.734 378.828 477.812 384.922 477.812H429.687C435.781 477.812 440.703 482.734 440.703 488.828V533.594C440.625 539.688 435.703 544.609 429.687 544.609ZM384.922 486.484C383.594 486.484 382.5 487.578 382.5 488.906V533.672C382.5 535 383.594 536.094 384.922 536.094H429.687C431.016 536.094 432.109 535 432.109 533.672V488.906C432.109 487.578 431.016 486.484 429.687 486.484H384.922Z" fill="#333336"/>
<path d="M521.328 540.312H476.562C472.891 540.312 469.844 537.344 469.844 533.594V488.828C469.844 485.156 472.812 482.109 476.562 482.109H521.328C525 482.109 528.047 485.078 528.047 488.828V533.594C528.047 537.344 525.078 540.312 521.328 540.312Z" fill="#D5D9CF"/>
<path d="M521.328 544.609H476.562C470.469 544.609 465.547 539.688 465.547 533.594V488.828C465.547 482.734 470.469 477.812 476.562 477.812H521.328C527.422 477.812 532.344 482.734 532.344 488.828V533.594C532.344 539.688 527.422 544.609 521.328 544.609ZM476.562 486.484C475.234 486.484 474.141 487.578 474.141 488.906V533.672C474.141 535 475.234 536.094 476.562 536.094H521.328C522.656 536.094 523.75 535 523.75 533.672V488.906C523.75 487.578 522.656 486.484 521.328 486.484H476.562Z" fill="#333336"/>
<path d="M613.047 540.312H568.281C564.609 540.312 561.562 537.344 561.562 533.594V488.828C561.562 485.156 564.531 482.109 568.281 482.109H613.047C616.719 482.109 619.766 485.078 619.766 488.828V533.594C619.766 537.344 616.719 540.312 613.047 540.312Z" fill="#68A240"/>
<path d="M613.047 544.609H568.281C562.188 544.609 557.266 539.688 557.266 533.594V488.828C557.266 482.734 562.188 477.812 568.281 477.812H613.047C619.141 477.812 624.062 482.734 624.062 488.828V533.594C624.062 539.688 619.141 544.609 613.047 544.609ZM568.281 486.484C566.953 486.484 565.859 487.578 565.859 488.906V533.672C565.859 535 566.953 536.094 568.281 536.094H613.047C614.375 536.094 615.469 535 615.469 533.672V488.906C615.469 487.578 614.375 486.484 613.047 486.484H568.281Z" fill="#333336"/>
</svg>
