<svg width="800" height="800" viewBox="0 0 800 800" fill="none" xmlns="http://www.w3.org/2000/svg">
<path d="M206.016 181.016C195.234 181.016 189.844 173.359 185.938 167.734C181.953 162.031 179.922 159.766 176.016 159.766C172.109 159.766 170.156 162.109 166.094 167.734C162.109 173.359 156.719 181.016 146.016 181.016C135.234 181.016 129.844 173.359 125.938 167.734C121.953 162.031 119.922 159.766 116.016 159.766C112.109 159.766 110.156 162.109 106.094 167.734C102.109 173.359 96.7187 181.016 86.0156 181.016C75.3125 181.016 69.8438 173.359 65.9375 167.734C61.9531 162.031 59.9219 159.766 56.0156 159.766C52.5781 159.766 49.7656 156.953 49.7656 153.516C49.7656 150.078 52.5781 147.266 56.0156 147.266C66.7969 147.266 72.1875 154.922 76.0938 160.547C80.0781 166.25 82.1094 168.516 86.0156 168.516C89.9219 168.516 91.875 166.172 95.9375 160.547C99.9219 154.922 105.313 147.266 116.016 147.266C126.719 147.266 132.188 154.922 136.094 160.547C140.078 166.25 142.109 168.516 146.016 168.516C149.922 168.516 151.875 166.172 155.938 160.547C159.922 154.922 165.313 147.266 176.016 147.266C186.719 147.266 192.188 154.922 196.094 160.547C200.078 166.25 202.109 168.516 206.016 168.516C209.453 168.516 212.266 171.328 212.266 174.766C212.266 178.203 209.453 181.016 206.016 181.016ZM206.016 220.078C195.234 220.078 189.844 212.422 185.938 206.797C181.953 201.094 179.922 198.828 176.016 198.828C172.109 198.828 170.156 201.172 166.094 206.797C162.109 212.422 156.719 220.078 146.016 220.078C135.234 220.078 129.844 212.422 125.938 206.797C121.953 201.094 119.922 198.828 116.016 198.828C112.109 198.828 110.156 201.172 106.094 206.797C102.109 212.422 96.7187 220.078 86.0156 220.078C75.3125 220.078 69.8438 212.422 65.9375 206.797C61.9531 201.094 59.9219 198.828 56.0156 198.828C52.5781 198.828 49.7656 196.016 49.7656 192.578C49.7656 189.141 52.5781 186.328 56.0156 186.328C66.7969 186.328 72.1875 193.984 76.0938 199.609C80.0781 205.312 82.1094 207.578 86.0156 207.578C89.9219 207.578 91.875 205.234 95.9375 199.609C99.9219 193.984 105.313 186.328 116.016 186.328C126.719 186.328 132.188 193.984 136.094 199.609C140.078 205.312 142.109 207.578 146.016 207.578C149.922 207.578 151.875 205.234 155.938 199.609C159.922 193.984 165.313 186.328 176.016 186.328C186.719 186.328 192.188 193.984 196.094 199.609C200.078 205.312 202.109 207.578 206.016 207.578C209.453 207.578 212.266 210.391 212.266 213.828C212.266 217.266 209.453 220.078 206.016 220.078ZM743.516 531.797C732.734 531.797 727.344 524.141 723.438 518.516C719.453 512.812 717.422 510.547 713.516 510.547C709.609 510.547 707.656 512.891 703.594 518.516C699.609 524.141 694.219 531.797 683.516 531.797C672.734 531.797 667.344 524.141 663.438 518.516C659.453 512.812 657.422 510.547 653.516 510.547C649.609 510.547 647.656 512.891 643.594 518.516C639.609 524.141 634.219 531.797 623.516 531.797C612.812 531.797 607.344 524.141 603.438 518.516C599.453 512.812 597.422 510.547 593.516 510.547C590.078 510.547 587.266 507.734 587.266 504.297C587.266 500.859 590.078 498.047 593.516 498.047C604.297 498.047 609.688 505.703 613.594 511.328C617.578 517.031 619.609 519.297 623.516 519.297C627.422 519.297 629.375 516.953 633.438 511.328C637.422 505.703 642.812 498.047 653.516 498.047C664.219 498.047 669.688 505.703 673.594 511.328C677.578 517.031 679.609 519.297 683.516 519.297C687.422 519.297 689.375 516.953 693.438 511.328C697.422 505.703 702.812 498.047 713.516 498.047C724.219 498.047 729.688 505.703 733.594 511.328C737.578 517.031 739.609 519.297 743.516 519.297C746.953 519.297 749.766 522.109 749.766 525.547C749.766 528.984 746.953 531.797 743.516 531.797ZM743.516 570.859C732.734 570.859 727.344 563.203 723.438 557.578C719.453 551.875 717.422 549.609 713.516 549.609C709.609 549.609 707.656 551.953 703.594 557.578C699.609 563.203 694.219 570.859 683.516 570.859C672.734 570.859 667.344 563.203 663.438 557.578C659.453 551.875 657.422 549.609 653.516 549.609C649.609 549.609 647.656 551.953 643.594 557.578C639.609 563.203 634.219 570.859 623.516 570.859C612.812 570.859 607.344 563.203 603.438 557.578C599.453 551.875 597.422 549.609 593.516 549.609C590.078 549.609 587.266 546.797 587.266 543.359C587.266 539.922 590.078 537.109 593.516 537.109C604.297 537.109 609.688 544.766 613.594 550.391C617.578 556.094 619.609 558.359 623.516 558.359C627.422 558.359 629.375 556.016 633.438 550.391C637.422 544.766 642.812 537.109 653.516 537.109C664.219 537.109 669.688 544.766 673.594 550.391C677.578 556.094 679.609 558.359 683.516 558.359C687.422 558.359 689.375 556.016 693.438 550.391C697.422 544.766 702.812 537.109 713.516 537.109C724.219 537.109 729.688 544.766 733.594 550.391C737.578 556.094 739.609 558.359 743.516 558.359C746.953 558.359 749.766 561.172 749.766 564.609C749.766 568.047 746.953 570.859 743.516 570.859Z" fill="#9A2D2F"/>
<path d="M249.844 81.3281C249.844 87.9585 252.478 94.3174 257.166 99.0058C261.854 103.694 268.213 106.328 274.844 106.328C281.474 106.328 287.833 103.694 292.521 99.0058C297.21 94.3174 299.844 87.9585 299.844 81.3281C299.844 74.6977 297.21 68.3389 292.521 63.6505C287.833 58.962 281.474 56.3281 274.844 56.3281C268.213 56.3281 261.854 58.962 257.166 63.6505C252.478 68.3389 249.844 74.6977 249.844 81.3281Z" fill="#FFEB4D"/>
<path d="M274.844 112.578C257.578 112.578 243.594 98.5938 243.594 81.3281C243.594 64.0625 257.578 50.0781 274.844 50.0781C292.109 50.0781 306.094 64.0625 306.094 81.3281C306.094 98.5938 292.031 112.578 274.844 112.578ZM274.844 62.5781C264.531 62.5781 256.094 71.0156 256.094 81.3281C256.094 91.6406 264.531 100.078 274.844 100.078C285.156 100.078 293.594 91.6406 293.594 81.3281C293.594 71.0156 285.156 62.5781 274.844 62.5781Z" fill="#9A2D2F"/>
<path d="M423.203 101.641H460.703V718.828H423.203V101.641Z" fill="#DAE5FF"/>
<path d="M637.266 464.062H318.516C311.641 464.062 306.016 458.438 306.016 451.562V401.562C306.016 394.688 311.641 389.062 318.516 389.062H637.266L687.266 426.562L637.266 464.062Z" fill="#C0FCD0"/>
<path d="M246.641 342.969H565.391C572.266 342.969 577.891 337.344 577.891 330.469V280.469C577.891 273.594 572.266 267.969 565.391 267.969H246.641L196.641 305.469L246.641 342.969Z" fill="#FFEB4D"/>
<path d="M637.266 221.875H318.516C311.641 221.875 306.016 216.25 306.016 209.375V159.375C306.016 152.5 311.641 146.875 318.516 146.875H637.266L687.266 184.375L637.266 221.875Z" fill="#DAE5FF"/>
<path d="M237.266 632.891C237.266 649.467 243.85 665.364 255.571 677.085C267.292 688.806 283.19 695.391 299.766 695.391C316.342 695.391 332.239 688.806 343.96 677.085C355.681 665.364 362.266 649.467 362.266 632.891C362.266 616.315 355.681 600.417 343.96 588.696C332.239 576.975 316.342 570.391 299.766 570.391C283.19 570.391 267.292 576.975 255.571 588.696C243.85 600.417 237.266 616.315 237.266 632.891Z" fill="#A7F9CE"/>
<path d="M292.734 719.609H139.609V674.297C139.609 632.188 174.063 597.734 216.172 597.734C258.281 597.734 292.734 632.188 292.734 674.297V719.609Z" fill="#FFACC2"/>
<path d="M389.609 719.609H263.828V693.438C263.828 658.828 292.109 630.547 326.719 630.547C361.328 630.547 389.609 658.828 389.609 693.438V719.609Z" fill="#CAE8FF"/>
<path d="M722.422 713.359H466.953V470.312H637.266C638.594 470.312 639.922 469.844 641.016 469.062L691.016 431.562C692.578 430.391 693.516 428.516 693.516 426.562C693.516 424.609 692.578 422.734 691.016 421.562L641.016 384.062C639.922 383.281 638.594 382.812 637.266 382.812H466.953V349.219H565.391C575.703 349.219 584.141 340.781 584.141 330.469V280.469C584.141 270.156 575.703 261.719 565.391 261.719H466.953V228.125H637.266C638.594 228.125 639.922 227.656 641.016 226.875L691.016 189.375C692.578 188.203 693.516 186.328 693.516 184.375C693.516 182.422 692.578 180.547 691.016 179.375L641.016 141.875C639.922 141.094 638.594 140.625 637.266 140.625H466.953V101.641C466.953 98.2031 464.141 95.3906 460.703 95.3906H423.203C419.766 95.3906 416.953 98.2031 416.953 101.641V140.625H318.516C308.203 140.625 299.766 149.062 299.766 159.375V209.375C299.766 219.687 308.203 228.125 318.516 228.125H416.953V261.719H246.641C245.313 261.719 243.984 262.188 242.891 262.969L192.891 300.469C191.328 301.641 190.391 303.516 190.391 305.469C190.391 307.422 191.328 309.297 192.891 310.469L242.891 347.969C243.984 348.75 245.313 349.219 246.641 349.219H416.953V382.812H318.516C308.203 382.812 299.766 391.25 299.766 401.562V451.562C299.766 461.875 308.203 470.312 318.516 470.312H416.953V713.359H395.859V693.438C395.859 670.938 385 650.859 368.281 638.203C368.438 636.406 368.516 634.688 368.516 632.891C368.516 595 337.656 564.141 299.766 564.141C275.547 564.141 254.297 576.719 242.031 595.625C233.906 592.969 225.234 591.484 216.172 591.484C170.547 591.484 133.359 628.672 133.359 674.297V713.359H78.6719C75.2344 713.359 72.4219 716.172 72.4219 719.609C72.4219 723.047 75.2344 725.859 78.6719 725.859H722.422C725.859 725.859 728.672 723.047 728.672 719.609C728.672 716.172 725.859 713.359 722.422 713.359ZM429.453 712.578V470.312H454.453V712.578H429.453ZM429.453 107.891H454.453V140.625H429.453V107.891ZM318.516 215.625C315.078 215.625 312.266 212.812 312.266 209.375V159.375C312.266 155.938 315.078 153.125 318.516 153.125H635.156L676.797 184.375L635.156 215.625H318.516ZM454.453 228.125V261.719H429.453V228.125H454.453ZM248.75 336.719L207.031 305.469L248.672 274.219H565.312C568.75 274.219 571.562 277.031 571.562 280.469V330.469C571.562 333.906 568.75 336.719 565.312 336.719H248.75ZM454.453 349.219V382.812H429.453V349.219H454.453ZM318.516 457.812C315.078 457.812 312.266 455 312.266 451.562V401.562C312.266 398.125 315.078 395.312 318.516 395.312H635.156L676.797 426.562L635.156 457.812H318.516ZM299.766 576.641C330.078 576.641 354.844 600.781 355.938 630.781C347.031 626.641 337.109 624.297 326.719 624.297C312.891 624.297 300.078 628.359 289.219 635.391C281.25 620.469 268.828 608.281 253.75 600.547C263.984 586.094 280.781 576.641 299.766 576.641ZM145.859 713.359V674.297C145.859 635.547 177.422 603.984 216.172 603.984C223.125 603.984 229.844 605 236.172 606.875C240.234 608.047 244.063 609.609 247.813 611.484C261.406 618.359 272.5 629.531 279.297 643.203C270.703 651.328 264.219 661.641 260.703 673.203C259.297 677.734 258.359 682.5 257.969 687.344C257.813 689.375 257.734 691.406 257.734 693.438V713.359H145.859ZM270.078 713.359V693.438C270.078 689.297 270.547 685.312 271.406 681.406C276.953 655.938 299.609 636.797 326.719 636.797C336.953 636.797 346.562 639.531 354.844 644.297C358.75 646.562 362.422 649.297 365.703 652.422C376.563 662.734 383.359 677.344 383.359 693.438V713.359H270.078Z" fill="#9A2D2F"/>
<path d="M236.172 606.875C229.844 605 223.125 603.984 216.172 603.984C180.234 603.984 150.547 631.016 146.406 665.859C164.141 665.313 183.438 661.641 193.984 656.719C212.969 647.891 201.406 627.031 228.203 623.75C236.641 622.734 244.766 621.25 253.203 614.531C251.484 613.438 249.688 612.422 247.813 611.484C244.063 609.609 240.156 608.047 236.172 606.875ZM299.766 576.641C282.656 576.641 267.266 584.375 256.953 596.484C255.859 597.813 254.766 599.141 253.75 600.547C257.578 602.5 261.172 604.688 264.609 607.188C265.078 607.031 265.625 606.797 266.094 606.641C272.969 604.141 277.812 599.453 283.047 596.641C291.875 591.875 304.531 597.656 318.75 597.656C324.609 597.656 330.703 595.859 337.188 590.859C326.884 581.683 313.563 576.621 299.766 576.641Z" fill="white"/>
</svg>
