<svg width="800" height="800" viewBox="0 0 800 800" fill="none" xmlns="http://www.w3.org/2000/svg">
<path d="M614.062 217.969L576.562 207.812L614.062 197.656L624.219 160.156L634.375 197.656L672.656 207.812L634.375 217.969L624.219 256.25L614.062 217.969ZM651.562 259.375L636.719 256.25L651.562 252.344L654.688 237.5L658.594 252.344L673.438 256.25L658.594 259.375L654.688 274.219L651.562 259.375Z" fill="#FDCD60"/>
<path d="M124.219 558.594L107.812 554.688L124.219 550.781L128.125 534.375L132.031 550.781L148.438 554.688L132.031 558.594L128.125 575L124.219 558.594Z" fill="#FDCD60"/>
<path d="M183.594 192.969C183.594 194.834 184.335 196.622 185.653 197.941C186.972 199.259 188.76 200 190.625 200C192.49 200 194.278 199.259 195.597 197.941C196.915 196.622 197.656 194.834 197.656 192.969C197.656 191.104 196.915 189.316 195.597 187.997C194.278 186.678 192.49 185.938 190.625 185.938C188.76 185.938 186.972 186.678 185.653 187.997C184.335 189.316 183.594 191.104 183.594 192.969Z" fill="#5546CB"/>
<path d="M225 641.406L203.906 636.719L225 631.25L229.688 610.156L235.156 631.25L256.25 636.719L235.156 641.406L229.688 662.5L225 641.406Z" fill="#FDCD60"/>
<path d="M650 646.875C646.137 646.875 642.361 645.73 639.149 643.583C635.937 641.437 633.434 638.387 631.956 634.818C630.477 631.249 630.09 627.322 630.844 623.533C631.598 619.745 633.458 616.265 636.189 613.533C638.921 610.802 642.401 608.941 646.19 608.188C649.978 607.434 653.905 607.821 657.474 609.299C661.043 610.778 664.094 613.281 666.24 616.493C668.386 619.705 669.531 623.481 669.531 627.344C669.531 632.524 667.474 637.492 663.811 641.154C660.148 644.817 655.18 646.875 650 646.875ZM650 618.75C648.455 618.75 646.944 619.208 645.66 620.067C644.375 620.925 643.374 622.145 642.782 623.573C642.191 625 642.036 626.571 642.338 628.087C642.639 629.602 643.383 630.994 644.476 632.087C645.568 633.179 646.96 633.923 648.476 634.225C649.991 634.526 651.562 634.372 652.99 633.78C654.417 633.189 655.637 632.188 656.496 630.903C657.354 629.618 657.813 628.108 657.813 626.563C657.813 624.491 656.989 622.503 655.524 621.038C654.059 619.573 652.072 618.75 650 618.75Z" fill="#5546CB"/>
<path d="M489.844 392.188L482.031 378.906L490.625 373.438V224.219L473.438 235.156C475.014 241.281 475.802 247.582 475.781 253.906C475.781 275.781 460.938 303.906 430.469 338.281C446.875 343.75 457.031 353.125 457.031 364.844C457.031 376.562 432.812 396.094 401.562 396.094C370.312 396.094 346.094 382.812 346.094 364.844C346.094 346.875 356.25 343.75 372.656 338.281L353.125 314.844L321.875 335.156V475.781H323.438L332.031 470.312L340.625 483.594L327.344 491.406H321.875V578.906L490.625 499.219V391.406L489.844 392.188ZM384.375 457.031L371.875 464.844L365.625 468.75L359.375 472.656H358.594L354.688 465.625L350.781 459.375L357.812 455.469L376.562 443.75L384.375 457.031ZM428.125 429.688L402.344 445.312L394.531 432.031L420.312 416.406L428.125 429.688ZM471.875 402.344L446.094 417.969L438.281 404.688L451.562 396.875L464.062 389.062L471.875 402.344ZM146.875 500L306.25 577.344V333.594L146.875 231.25V500ZM273.438 442.188L298.438 459.375L289.844 471.875L264.844 454.688L273.438 442.188ZM228.906 417.969L232.031 414.062L238.281 418.75L256.25 431.25L247.656 443.75L235.938 435.156L229.688 430.469L223.438 425.781L228.906 417.969ZM196.094 382.812C200.575 382.812 204.955 384.141 208.681 386.631C212.407 389.12 215.311 392.659 217.025 396.799C218.74 400.938 219.189 405.494 218.315 409.889C217.44 414.284 215.283 418.321 212.114 421.489C208.946 424.658 204.909 426.815 200.514 427.69C196.119 428.564 191.563 428.115 187.424 426.4C183.284 424.686 179.745 421.782 177.256 418.056C174.766 414.33 173.438 409.95 173.438 405.469C173.436 402.427 174.047 399.415 175.234 396.614C176.421 393.813 178.16 391.28 180.347 389.166C182.534 387.051 185.125 385.399 187.965 384.308C190.804 383.216 193.835 382.708 196.875 382.812H196.094ZM506.25 372.656L515.625 377.344L508.594 391.406L506.25 389.844V500L675.781 574.219V334.375L506.25 222.656V372.656ZM643.75 425.781C648.231 425.781 652.611 427.11 656.337 429.6C660.063 432.089 662.967 435.627 664.682 439.767C666.396 443.907 666.845 448.463 665.971 452.857C665.097 457.252 662.939 461.289 659.77 464.458C656.602 467.626 652.565 469.784 648.17 470.658C643.775 471.533 639.22 471.084 635.08 469.369C630.94 467.654 627.402 464.75 624.912 461.025C622.423 457.299 621.094 452.918 621.094 448.438C621.094 442.429 623.481 436.666 627.73 432.417C631.978 428.168 637.741 425.781 643.75 425.781ZM587.5 414.062L615.625 428.906L608.594 442.969L580.469 428.906L587.5 414.062ZM533.594 396.094L537.5 388.281L544.531 391.406L551.562 394.531L565.625 401.562L558.594 415.625L537.5 404.688L530.469 401.562L533.594 396.094Z" fill="#FDCD60"/>
<path d="M500 200L467.969 221.094C460.733 205.638 448.392 193.147 433.024 185.726C417.656 178.305 400.2 176.407 383.596 180.352C366.992 184.296 352.255 193.842 341.867 207.382C331.478 220.922 326.073 237.628 326.562 254.687C326.562 267.969 332.031 284.375 343.75 302.344L314.844 321.094L131.25 203.125V509.375L315.625 599.219L497.656 513.281L691.406 597.656V325.781L500 200ZM342.188 253.906C342.188 238.263 348.402 223.26 359.464 212.198C370.525 201.136 385.528 194.922 401.172 194.922C416.815 194.922 431.818 201.136 442.88 212.198C453.942 223.26 460.156 238.263 460.156 253.906C460.156 279.687 428.906 317.187 401.562 346.094C353.125 296.875 342.188 268.75 342.188 253.906ZM417.969 350.781C432.031 353.906 440.625 360.156 440.625 364.844C440.625 369.531 425 380.469 400.781 380.469C376.562 380.469 360.938 371.094 360.938 364.844C360.938 358.594 369.531 353.906 383.594 350.781L395.312 362.5L400.781 367.969L406.25 362.5L417.969 350.781ZM306.25 577.344L146.875 500V231.25L306.25 333.594V577.344ZM321.875 578.906V492.187H327.344L340.625 484.375L332.031 471.094L323.438 476.562H321.875V335.156L353.125 314.844L372.656 338.281C356.25 343.75 346.094 353.125 346.094 364.844C346.094 376.562 370.312 396.094 401.562 396.094C432.812 396.094 457.031 382.812 457.031 364.844C457.031 346.875 446.875 343.75 430.469 338.281C460.938 303.906 475.781 275.781 475.781 253.906C475.802 247.582 475.014 241.281 473.438 235.156L490.625 224.219V372.656L482.031 378.125L489.844 391.406H490.625V499.219L321.875 578.906ZM675.781 574.219L506.25 500V389.844L508.594 391.406L515.625 377.344L506.25 372.656V222.656L675.781 334.375V574.219Z" fill="#5546CB"/>
<path d="M223.438 426.562L229.688 430.469L235.938 435.156L247.656 443.75L257.031 430.469L238.281 417.969L232.031 413.281L228.906 417.188L223.438 426.562ZM289.844 471.875L298.438 459.375L273.438 442.188L264.844 454.688L289.844 471.875ZM375.781 443.75L357.031 455.469L350 459.375L350.781 460.156H350L353.906 466.406L357.812 473.438V472.656L358.594 473.438L364.844 469.531L371.875 465.625H371.094L384.375 457.031L375.781 443.75ZM419.531 417.188L393.75 432.812L402.344 446.094L428.125 430.469L420.312 417.188H419.531ZM464.062 389.844L451.562 397.656L438.281 405.469L446.094 418.75L471.875 403.125L464.062 389.844ZM530.469 402.344L537.5 405.469L558.594 416.406L565.625 403.125V402.344L551.562 395.312L544.531 392.188L537.5 388.281L533.594 396.094L530.469 402.344ZM608.594 442.188L615.625 428.125L587.5 414.062L580.469 427.344V428.125L608.594 442.188Z" fill="#5546CB"/>
<path d="M643.75 457.031C645.45 457.031 647.111 456.527 648.524 455.583C649.938 454.639 651.039 453.297 651.69 451.726C652.34 450.156 652.51 448.428 652.179 446.761C651.847 445.094 651.029 443.563 649.827 442.361C648.625 441.159 647.094 440.34 645.427 440.009C643.76 439.677 642.032 439.847 640.461 440.498C638.891 441.148 637.549 442.25 636.605 443.663C635.66 445.076 635.156 446.738 635.156 448.437C635.156 450.717 636.062 452.903 637.673 454.514C639.285 456.126 641.471 457.031 643.75 457.031Z" fill="#F97744"/>
<path d="M643.75 471.094C648.231 471.094 652.611 469.765 656.337 467.275C660.063 464.786 662.967 461.248 664.682 457.108C666.396 452.968 666.845 448.412 665.971 444.017C665.097 439.623 662.939 435.586 659.77 432.417C656.602 429.249 652.565 427.091 648.17 426.217C643.775 425.342 639.22 425.791 635.08 427.506C630.94 429.221 627.402 432.125 624.912 435.85C622.423 439.576 621.094 443.957 621.094 448.437C621.094 454.446 623.481 460.209 627.73 464.458C631.978 468.707 637.741 471.094 643.75 471.094ZM643.75 439.844C645.45 439.844 647.111 440.348 648.524 441.292C649.938 442.236 651.039 443.578 651.69 445.149C652.34 446.719 652.51 448.447 652.179 450.114C651.847 451.781 651.029 453.312 649.827 454.514C648.625 455.716 647.094 456.535 645.427 456.866C643.76 457.198 642.032 457.028 640.461 456.377C638.891 455.727 637.549 454.625 636.605 453.212C635.66 451.799 635.156 450.137 635.156 448.437C635.156 446.158 636.062 443.972 637.673 442.361C639.285 440.749 641.471 439.844 643.75 439.844Z" fill="#5546CB"/>
<path d="M196.875 414.063C198.575 414.063 200.236 413.559 201.649 412.614C203.063 411.67 204.164 410.328 204.815 408.757C205.465 407.187 205.635 405.459 205.304 403.792C204.972 402.125 204.154 400.594 202.952 399.392C201.75 398.19 200.219 397.372 198.552 397.04C196.885 396.709 195.157 396.879 193.586 397.529C192.016 398.18 190.674 399.281 189.73 400.694C188.785 402.108 188.281 403.769 188.281 405.469C188.281 407.748 189.187 409.934 190.798 411.545C192.41 413.157 194.596 414.063 196.875 414.063Z" fill="white"/>
<path d="M196.875 428.125C201.356 428.125 205.736 426.796 209.462 424.307C213.188 421.817 216.092 418.279 217.807 414.139C219.521 409.999 219.97 405.444 219.096 401.049C218.222 396.654 216.064 392.617 212.895 389.448C209.727 386.28 205.69 384.122 201.295 383.248C196.9 382.374 192.345 382.822 188.205 384.537C184.065 386.252 180.527 389.156 178.037 392.882C175.548 396.607 174.219 400.988 174.219 405.469C174.219 411.478 176.606 417.24 180.855 421.489C185.103 425.738 190.866 428.125 196.875 428.125ZM196.875 396.875C198.575 396.875 200.236 397.379 201.649 398.323C203.063 399.268 204.164 400.61 204.815 402.18C205.465 403.75 205.635 405.478 205.304 407.145C204.972 408.812 204.154 410.344 202.952 411.545C201.75 412.747 200.219 413.566 198.552 413.897C196.885 414.229 195.157 414.059 193.586 413.408C192.016 412.758 190.674 411.656 189.73 410.243C188.785 408.83 188.281 407.168 188.281 405.469C188.281 403.19 189.187 401.004 190.798 399.392C192.41 397.78 194.596 396.875 196.875 396.875Z" fill="#5546CB"/>
<path d="M396.094 363.281L384.375 351.562C370.312 354.688 361.719 360.938 361.719 365.625C361.719 370.312 377.344 381.25 401.562 381.25C425.781 381.25 441.406 371.875 441.406 365.625C441.406 359.375 432.812 354.688 418.75 351.562L407.031 363.281L401.562 368.75L396.094 363.281Z" fill="#AFBCF3"/>
<path d="M401.562 346.875C429.688 317.969 460.156 280.469 460.156 254.688C460.156 239.044 453.942 224.041 442.88 212.979C431.818 201.918 416.816 195.703 401.172 195.703C385.528 195.703 370.525 201.918 359.464 212.979C348.402 224.041 342.188 239.044 342.188 254.688C342.188 268.75 353.125 296.875 401.562 346.875ZM374.219 255.469C374.219 250.061 375.822 244.774 378.827 240.277C381.832 235.781 386.102 232.276 391.098 230.206C396.095 228.137 401.593 227.595 406.897 228.65C412.201 229.705 417.073 232.31 420.897 236.134C424.722 239.958 427.326 244.83 428.381 250.134C429.436 255.438 428.894 260.936 426.825 265.933C424.755 270.929 421.251 275.2 416.754 278.204C412.257 281.209 406.971 282.812 401.562 282.812C394.31 282.812 387.355 279.932 382.228 274.804C377.1 269.676 374.219 262.721 374.219 255.469Z" fill="#F97744"/>
<path d="M374.219 255.469C374.219 262.721 377.1 269.676 382.228 274.804C387.355 279.932 394.31 282.812 401.562 282.812C408.815 282.812 415.769 279.932 420.897 274.804C426.025 269.676 428.906 262.721 428.906 255.469C428.906 248.217 426.025 241.262 420.897 236.134C415.769 231.006 408.815 228.125 401.562 228.125C394.31 228.125 387.355 231.006 382.228 236.134C377.1 241.262 374.219 248.217 374.219 255.469Z" fill="white"/>
</svg>
