<svg width="800" height="800" viewBox="0 0 800 800" fill="none" xmlns="http://www.w3.org/2000/svg">
<path fill-rule="evenodd" clip-rule="evenodd" d="M733.333 400C733.333 584.093 584.093 733.333 400 733.333C215.905 733.333 66.6665 584.093 66.6665 400C66.6665 215.905 215.905 66.6667 400 66.6667C584.093 66.6667 733.333 215.905 733.333 400ZM400 258.333C379.29 258.333 362.5 275.123 362.5 295.833C362.5 309.64 351.306 320.833 337.5 320.833C323.693 320.833 312.5 309.64 312.5 295.833C312.5 247.508 351.676 208.333 400 208.333C448.323 208.333 487.5 247.508 487.5 295.833C487.5 319.528 478.05 341.067 462.767 356.8C459.69 359.963 456.757 362.897 453.956 365.693C446.763 372.88 440.46 379.177 434.93 386.283C427.63 395.663 425 402.56 425 408.333V433.333C425 447.14 413.806 458.333 400 458.333C386.193 458.333 375 447.14 375 433.333V408.333C375 386.493 385.166 368.813 395.473 355.573C403.096 345.777 412.68 336.21 420.46 328.449C422.806 326.107 424.986 323.93 426.9 321.959C433.486 315.181 437.5 306.001 437.5 295.833C437.5 275.123 420.71 258.333 400 258.333ZM400 566.667C418.41 566.667 433.333 551.743 433.333 533.333C433.333 514.923 418.41 500 400 500C381.59 500 366.667 514.923 366.667 533.333C366.667 551.743 381.59 566.667 400 566.667Z" fill="#808080"/>
</svg>
