<svg width="800" height="800" viewBox="0 0 800 800" fill="none" xmlns="http://www.w3.org/2000/svg">
<path d="M237.5 462.5H562.5L643.75 693.75H156.25L237.5 462.5ZM493.75 562.5C503.75 562.5 512.5 553.75 512.5 543.75C512.5 533.75 503.75 525 493.75 525C483.75 525 475 533.75 475 543.75C475 553.75 483.75 562.5 493.75 562.5ZM293.75 525C303.75 525 312.5 516.25 312.5 506.25C312.5 496.25 303.75 487.5 293.75 487.5C283.75 487.5 275 496.25 275 506.25C275 516.25 283.75 525 293.75 525ZM400 612.5C407.5 612.5 412.5 607.5 412.5 600C412.5 592.5 407.5 587.5 400 587.5C392.5 587.5 387.5 592.5 387.5 600C387.5 607.5 392.5 612.5 400 612.5ZM406.25 412.5C396.25 412.5 387.5 403.75 387.5 393.75C387.5 383.75 396.25 375 406.25 375C416.25 375 425 383.75 425 393.75C425 403.75 416.25 412.5 406.25 412.5ZM487.5 450C480 450 475 445 475 437.5C475 430 480 425 487.5 425C495 425 500 430 500 437.5C500 445 495 450 487.5 450Z" fill="#2F4BFF"/>
<path d="M486.25 87.5H313.75C321.25 147.5 325 198.75 325 225C325 252.5 273.75 418.75 168.75 687.5H632.5C526.25 418.75 475 252.5 475 225C475 198.75 478.75 147.5 486.25 87.5ZM511.25 87.5C503.75 148.75 500 200 500 225C500 247.5 552.501 418.75 655.001 678.75C656.251 681.25 656.25 685 656.25 687.5C656.25 701.25 645 712.5 631.25 712.5H167.5C163.75 712.5 161.25 712.5 158.75 711.25C146.25 706.25 140 691.25 145 678.75C247.5 418.75 300 247.5 300 225C300 200 296.25 148.75 288.75 87.5H287.5C280 87.5 275 82.5 275 75C275 67.5 280 62.5 287.5 62.5H512.5C520 62.5 525 67.5 525 75C525 82.5 520 87.5 511.25 87.5Z" fill="#08135B"/>
<path d="M331.25 375H368.75C372.5 375 375 377.5 375 381.25C375 385 372.5 387.5 368.75 387.5H337.5V425H356.25C360 425 362.5 427.5 362.5 431.25C362.5 435 360 437.5 356.25 437.5H337.5V475H368.75C372.5 475 375 477.5 375 481.25C375 485 372.5 487.5 368.75 487.5H337.5V525H356.25C360 525 362.5 527.5 362.5 531.25C362.5 535 360 537.5 356.25 537.5H337.5V575H368.75C372.5 575 375 577.5 375 581.25C375 585 372.5 587.5 368.75 587.5H325V375H331.25Z" fill="#08135B"/>
</svg>
