<svg width="800" height="800" viewBox="0 0 800 800" fill="none" xmlns="http://www.w3.org/2000/svg">
<path d="M400 750C327.5 750 275 593.75 275 400C275 206.25 327.5 50 400 50C472.5 50 525 206.25 525 400C525 593.75 472.5 750 400 750ZM400 725C451.25 725 500 580 500 400C500 220 451.25 75 400 75C348.75 75 300 220 300 400C300 580 348.75 725 400 725Z" fill="#050D42"/>
<path d="M97.4993 575C59.9993 512.5 169.999 388.75 337.499 291.25C504.999 193.75 666.249 162.5 702.499 225C738.749 287.5 629.999 411.25 462.499 508.75C294.999 606.25 133.749 637.5 97.4993 575ZM118.749 562.5C144.999 607.5 294.999 576.25 449.999 486.25C604.999 396.25 707.499 282.5 681.249 237.5C654.999 192.5 504.999 223.75 349.999 313.75C194.999 403.75 92.4993 517.5 118.749 562.5Z" fill="#050D42"/>
<path d="M702.499 575C666.249 637.5 503.749 605 337.499 508.75C171.249 412.5 59.9992 287.5 97.4992 225C134.999 162.5 296.249 195 462.499 291.25C628.749 387.5 739.999 512.5 702.499 575ZM681.249 562.5C707.499 517.5 604.999 403.75 449.999 313.75C294.999 223.75 143.749 192.5 118.749 237.5C93.7492 282.5 194.999 396.25 349.999 486.25C504.999 576.25 656.249 607.5 681.249 562.5Z" fill="#050D42"/>
<path d="M400 462.5C365 462.5 337.5 435 337.5 400C337.5 365 365 337.5 400 337.5C435 337.5 462.5 365 462.5 400C462.5 435 435 462.5 400 462.5ZM212.5 243.75C191.25 243.75 175 227.5 175 206.25C175 185 191.25 168.75 212.5 168.75C233.75 168.75 250 185 250 206.25C250 227.5 233.75 243.75 212.5 243.75ZM325 687.5C303.75 687.5 287.5 671.25 287.5 650C287.5 628.75 303.75 612.5 325 612.5C346.25 612.5 362.5 628.75 362.5 650C362.5 671.25 346.25 687.5 325 687.5ZM675 350C653.75 350 637.5 333.75 637.5 312.5C637.5 291.25 653.75 275 675 275C696.25 275 712.5 291.25 712.5 312.5C712.5 333.75 696.25 350 675 350Z" fill="#2F4BFF"/>
</svg>
